M48
INCH
T1C0.0256
T2C0.0689
T3C0.1200
T4C0.1570
T5C0.1575
%
G90
G05
T1
X0.9984Y-2.4626
X1.226Y-2.4626
T2
X1.8531Y-2.6433
X1.8531Y-4.8933
X1.9469Y-3.3933
X2.0406Y-4.1433
X2.2531Y-2.6433
X2.2531Y-4.8933
X2.3469Y-3.3933
X2.4406Y-4.1433
X2.6031Y-2.6433
X2.6031Y-4.8933
X2.7906Y-3.3933
X2.9781Y-4.1433
X3.0031Y-2.6433
X3.0031Y-4.8933
X3.1906Y-3.3933
X3.3531Y-2.6433
X3.3531Y-4.8933
X3.3781Y-4.1433
X3.5406Y-3.3933
X3.7281Y-4.1433
X3.7531Y-2.6433
X3.7531Y-4.8933
X3.9406Y-3.3933
X4.1031Y-2.6433
X4.1031Y-4.8933
X4.1281Y-4.1433
X4.2906Y-3.3933
X4.4781Y-4.1433
X4.5031Y-2.6433
X4.5031Y-4.8933
X4.6906Y-3.3933
X4.8531Y-2.6433
X4.8781Y-4.1433
X4.9469Y-4.8933
X5.0406Y-3.3933
X5.2281Y-4.1433
X5.2531Y-2.6433
X5.3219Y-4.8894
X5.3469Y-4.8933
X5.4406Y-3.3933
X5.6031Y-2.6433
X5.6281Y-4.1433
X5.7219Y-4.8894
X5.7906Y-3.3933
X5.9781Y-4.1433
X6.0031Y-2.6433
X6.1656Y-4.8933
X6.1906Y-3.3933
X6.3531Y-2.6433
X6.3781Y-4.1433
X6.5406Y-3.3933
X6.5656Y-4.8933
X6.7281Y-4.1433
X6.7531Y-2.6433
X6.9406Y-3.3933
X7.0094Y-4.8894
X7.1031Y-2.6433
X7.1281Y-4.1433
X7.2906Y-3.3933
X7.3844Y-4.8933
X7.4094Y-4.8894
X7.4781Y-4.1433
X7.5031Y-2.6433
X7.6906Y-3.3933
X7.7844Y-4.8933
X7.8531Y-2.6433
X7.8781Y-4.1433
X8.0406Y-3.3933
X8.2281Y-4.1433
X8.2281Y-4.8933
X8.2531Y-2.6433
X8.4406Y-3.3933
X8.6031Y-2.6433
X8.6281Y-4.1433
X8.6281Y-4.8933
X8.7906Y-3.3933
X8.9781Y-4.1433
X8.9781Y-4.8933
X9.0031Y-2.6433
X9.1906Y-3.3933
X9.3531Y-2.6433
X9.3781Y-4.1433
X9.3781Y-4.8933
X9.5406Y-3.3933
X9.7281Y-4.1433
X9.7281Y-4.8933
X9.7531Y-2.6433
X9.9406Y-3.3933
X10.1281Y-4.1433
X10.1281Y-4.8933
X10.2906Y-2.6433
X10.3844Y-3.3933
X10.4781Y-4.1433
X10.4781Y-4.8933
X10.6906Y-2.6433
X10.7844Y-3.3933
X10.8781Y-4.1433
X10.8781Y-4.8933
T3
X5.0519Y-5.1683
X5.8969Y-5.1683
X5.9919Y-5.1683
X6.7394Y-5.1683
X6.8344Y-5.1683
X7.6794Y-5.1683
T4
X5.0519Y-4.5683
X5.8969Y-4.5683
X5.9919Y-4.5683
X6.7394Y-4.5683
X6.8344Y-4.5683
X7.6794Y-4.5683
T5
X2.0531Y-2.6394
X2.0531Y-4.8894
X2.1469Y-3.3933
X2.2406Y-4.1433
X2.8031Y-2.6394
X2.8031Y-4.8894
X2.9906Y-3.3894
X3.1781Y-4.1394
X3.5531Y-2.6394
X3.5531Y-4.8894
X3.7406Y-3.3894
X3.9281Y-4.1394
X4.3031Y-2.6394
X4.3031Y-4.8894
X4.4906Y-3.3894
X4.6781Y-4.1394
X5.0531Y-2.6394
X5.1469Y-4.8933
X5.2406Y-3.3894
X5.4281Y-4.1394
X5.5219Y-4.8933
X5.8031Y-2.6394
X5.9906Y-3.3894
X6.1781Y-4.1394
X6.3656Y-4.8933
X6.5531Y-2.6394
X6.7406Y-3.3894
X6.9281Y-4.1394
X7.2094Y-4.8933
X7.3031Y-2.6394
X7.4906Y-3.3894
X7.5844Y-4.8933
X7.6781Y-4.1394
X8.0531Y-2.6394
X8.2406Y-3.3894
X8.4281Y-4.1394
X8.4281Y-4.8894
X8.8031Y-2.6394
X8.9906Y-3.3894
X9.1781Y-4.1394
X9.1781Y-4.8894
X9.5531Y-2.6394
X9.7406Y-3.3894
X9.9281Y-4.1394
X9.9281Y-4.8894
X10.4906Y-2.6433
X10.5844Y-3.3933
X10.6781Y-4.1394
X10.6781Y-4.8894
T0
M30
