G04 #@! TF.GenerationSoftware,KiCad,Pcbnew,(6.0.0)*
G04 #@! TF.CreationDate,2022-06-02T13:00:09+05:00*
G04 #@! TF.ProjectId,keyboard,6b657962-6f61-4726-942e-6b696361645f,rev?*
G04 #@! TF.SameCoordinates,Original*
G04 #@! TF.FileFunction,Soldermask,Top*
G04 #@! TF.FilePolarity,Negative*
%FSLAX46Y46*%
G04 Gerber Fmt 4.6, Leading zero omitted, Abs format (unit mm)*
G04 Created by KiCad (PCBNEW (6.0.0)) date 2022-06-02 13:00:09*
%MOMM*%
%LPD*%
G01*
G04 APERTURE LIST*
%ADD10C,4.000000*%
%ADD11C,1.750000*%
%ADD12C,3.650000*%
%ADD13C,3.987800*%
%ADD14C,3.048000*%
%ADD15O,1.600000X2.000000*%
%ADD16R,2.000000X2.000000*%
%ADD17C,2.000000*%
%ADD18R,2.000000X3.200000*%
%ADD19C,0.650000*%
%ADD20O,1.000000X1.600000*%
%ADD21O,1.000000X2.100000*%
%ADD22O,1.700000X1.700000*%
%ADD23R,1.700000X1.700000*%
%ADD24C,7.000240*%
G04 APERTURE END LIST*
D10*
G04 #@! TO.C,K_18*
X171212500Y-86090000D03*
D11*
X166132500Y-86190000D03*
X176292500Y-86190000D03*
D12*
X167402500Y-83650000D03*
X173752500Y-81110000D03*
G04 #@! TD*
D10*
G04 #@! TO.C,K_35*
X271225000Y-105140000D03*
D11*
X266145000Y-105240000D03*
X276305000Y-105240000D03*
D12*
X267415000Y-102700000D03*
X273765000Y-100160000D03*
G04 #@! TD*
D10*
G04 #@! TO.C,K_17*
X152162500Y-86090000D03*
D11*
X147082500Y-86190000D03*
X157242500Y-86190000D03*
D12*
X148352500Y-83650000D03*
X154702500Y-81110000D03*
G04 #@! TD*
D10*
G04 #@! TO.C,K_21*
X228362500Y-86090000D03*
D11*
X223282500Y-86190000D03*
X233442500Y-86190000D03*
D12*
X224552500Y-83650000D03*
X230902500Y-81110000D03*
G04 #@! TD*
D10*
G04 #@! TO.C,K_27*
X118825000Y-105140000D03*
D11*
X113745000Y-105240000D03*
X123905000Y-105240000D03*
D12*
X115015000Y-102700000D03*
X121365000Y-100160000D03*
G04 #@! TD*
D10*
G04 #@! TO.C,K_47*
X252175000Y-124190000D03*
D11*
X247095000Y-124290000D03*
X257255000Y-124290000D03*
D12*
X248365000Y-121750000D03*
X254715000Y-119210000D03*
G04 #@! TD*
D10*
G04 #@! TO.C,K_20*
X209312500Y-86090000D03*
D11*
X204232500Y-86190000D03*
X214392500Y-86190000D03*
D12*
X205502500Y-83650000D03*
X211852500Y-81110000D03*
G04 #@! TD*
D11*
G04 #@! TO.C,K_11*
X261382500Y-67140000D03*
D10*
X266462500Y-67140000D03*
D11*
X271542500Y-67140000D03*
D12*
X262652500Y-64600000D03*
X269002500Y-62060000D03*
G04 #@! TD*
D13*
G04 #@! TO.C,K_41*
X128318250Y-116035000D03*
D10*
X140256250Y-124290000D03*
D11*
X145336250Y-124190000D03*
D14*
X152194250Y-131275000D03*
D13*
X152194250Y-116035000D03*
D11*
X135176250Y-124190000D03*
D14*
X128318250Y-131275000D03*
D12*
X144066250Y-126730000D03*
X137716250Y-129270000D03*
G04 #@! TD*
D15*
G04 #@! TO.C,Brd1*
X24500000Y-97160000D03*
X27040000Y-97160000D03*
X32120000Y-97160000D03*
X29580000Y-97160000D03*
G04 #@! TD*
D13*
G04 #@! TO.C,K_43*
X171180750Y-116035000D03*
D10*
X183118750Y-124290000D03*
D11*
X188198750Y-124190000D03*
D14*
X195056750Y-131275000D03*
D13*
X195056750Y-116035000D03*
D11*
X178038750Y-124190000D03*
D14*
X171180750Y-131275000D03*
D12*
X186928750Y-126730000D03*
X180578750Y-129270000D03*
G04 #@! TD*
D10*
G04 #@! TO.C,K_32*
X214075000Y-105140000D03*
D11*
X208995000Y-105240000D03*
X219155000Y-105240000D03*
D12*
X210265000Y-102700000D03*
X216615000Y-100160000D03*
G04 #@! TD*
D10*
G04 #@! TO.C,K_25*
X80725000Y-105140000D03*
D11*
X75645000Y-105240000D03*
X85805000Y-105240000D03*
D12*
X76915000Y-102700000D03*
X83265000Y-100160000D03*
G04 #@! TD*
D10*
G04 #@! TO.C,K_1*
X71200000Y-67040000D03*
D11*
X66120000Y-67140000D03*
X76280000Y-67140000D03*
D12*
X67390000Y-64600000D03*
X73740000Y-62060000D03*
G04 #@! TD*
D10*
G04 #@! TO.C,K_15*
X114062500Y-86090000D03*
D11*
X108982500Y-86190000D03*
X119142500Y-86190000D03*
D12*
X110252500Y-83650000D03*
X116602500Y-81110000D03*
G04 #@! TD*
D10*
G04 #@! TO.C,K_33*
X233125000Y-105140000D03*
D11*
X228045000Y-105240000D03*
X238205000Y-105240000D03*
D12*
X229315000Y-102700000D03*
X235665000Y-100160000D03*
G04 #@! TD*
D10*
G04 #@! TO.C,K_37*
X71200000Y-124190000D03*
D11*
X66120000Y-124290000D03*
X76280000Y-124290000D03*
D12*
X67390000Y-121750000D03*
X73740000Y-119210000D03*
G04 #@! TD*
D10*
G04 #@! TO.C,K_26*
X99775000Y-105140000D03*
D11*
X94695000Y-105240000D03*
X104855000Y-105240000D03*
D12*
X95965000Y-102700000D03*
X102315000Y-100160000D03*
G04 #@! TD*
D10*
G04 #@! TO.C,K_3*
X109300000Y-67040000D03*
D11*
X104220000Y-67140000D03*
X114380000Y-67140000D03*
D12*
X105490000Y-64600000D03*
X111840000Y-62060000D03*
G04 #@! TD*
D10*
G04 #@! TO.C,K_9*
X223600000Y-67040000D03*
D11*
X218520000Y-67140000D03*
X228680000Y-67140000D03*
D12*
X219790000Y-64600000D03*
X226140000Y-62060000D03*
G04 #@! TD*
D10*
G04 #@! TO.C,K_16*
X133112500Y-86090000D03*
D11*
X128032500Y-86190000D03*
X138192500Y-86190000D03*
D12*
X129302500Y-83650000D03*
X135652500Y-81110000D03*
G04 #@! TD*
D16*
G04 #@! TO.C,E1*
X31290000Y-105500000D03*
D17*
X26290000Y-105500000D03*
X28790000Y-105500000D03*
D18*
X23190000Y-113000000D03*
X34390000Y-113000000D03*
D17*
X26290000Y-120000000D03*
X31290000Y-120000000D03*
G04 #@! TD*
D10*
G04 #@! TO.C,K_31*
X195025000Y-105140000D03*
D11*
X189945000Y-105240000D03*
X200105000Y-105240000D03*
D12*
X191215000Y-102700000D03*
X197565000Y-100160000D03*
G04 #@! TD*
D10*
G04 #@! TO.C,K_29*
X156925000Y-105140000D03*
D11*
X151845000Y-105240000D03*
X162005000Y-105240000D03*
D12*
X153115000Y-102700000D03*
X159465000Y-100160000D03*
G04 #@! TD*
D10*
G04 #@! TO.C,K_8*
X204550000Y-67040000D03*
D11*
X199470000Y-67140000D03*
X209630000Y-67140000D03*
D12*
X200740000Y-64600000D03*
X207090000Y-62060000D03*
G04 #@! TD*
D10*
G04 #@! TO.C,K_36*
X52150000Y-124190000D03*
D11*
X47070000Y-124290000D03*
X57230000Y-124290000D03*
D12*
X48340000Y-121750000D03*
X54690000Y-119210000D03*
G04 #@! TD*
D10*
G04 #@! TO.C,K_39*
X109300000Y-124190000D03*
D11*
X104220000Y-124290000D03*
X114380000Y-124290000D03*
D12*
X105490000Y-121750000D03*
X111840000Y-119210000D03*
G04 #@! TD*
D10*
G04 #@! TO.C,K_30*
X175975000Y-105140000D03*
D11*
X170895000Y-105240000D03*
X181055000Y-105240000D03*
D12*
X172165000Y-102700000D03*
X178515000Y-100160000D03*
G04 #@! TD*
D10*
G04 #@! TO.C,K_48*
X271225000Y-124190000D03*
D11*
X266145000Y-124290000D03*
X276305000Y-124290000D03*
D12*
X267415000Y-121750000D03*
X273765000Y-119210000D03*
G04 #@! TD*
D11*
G04 #@! TO.C,K_12*
X49451250Y-86190000D03*
X59611250Y-86190000D03*
D10*
X54531250Y-86190000D03*
D12*
X50746250Y-83700000D03*
X57096250Y-81160000D03*
G04 #@! TD*
D11*
G04 #@! TO.C,K_44*
X187563750Y-124290000D03*
X197723750Y-124290000D03*
D10*
X192643750Y-124290000D03*
D12*
X188858750Y-121800000D03*
X195208750Y-119260000D03*
G04 #@! TD*
D10*
G04 #@! TO.C,K_46*
X233125000Y-124190000D03*
D11*
X228045000Y-124290000D03*
X238205000Y-124290000D03*
D12*
X229315000Y-121750000D03*
X235665000Y-119210000D03*
G04 #@! TD*
D10*
G04 #@! TO.C,K_0*
X52150000Y-67040000D03*
D11*
X47070000Y-67140000D03*
X57230000Y-67140000D03*
D12*
X48340000Y-64600000D03*
X54690000Y-62060000D03*
G04 #@! TD*
D10*
G04 #@! TO.C,K_42*
X161687500Y-124290000D03*
D11*
X156607500Y-124290000D03*
D14*
X173593750Y-131275000D03*
D13*
X173593750Y-116035000D03*
D11*
X166767500Y-124290000D03*
D13*
X149781250Y-116035000D03*
D14*
X149781250Y-131275000D03*
D12*
X157877500Y-121750000D03*
X164227500Y-119210000D03*
G04 #@! TD*
D10*
G04 #@! TO.C,K_6*
X166450000Y-67040000D03*
D11*
X161370000Y-67140000D03*
X171530000Y-67140000D03*
D12*
X162640000Y-64600000D03*
X168990000Y-62060000D03*
G04 #@! TD*
D11*
G04 #@! TO.C,K_24*
X51832500Y-105240000D03*
D10*
X56912500Y-105240000D03*
D11*
X61992500Y-105240000D03*
D12*
X53102500Y-102700000D03*
X59452500Y-100160000D03*
G04 #@! TD*
D11*
G04 #@! TO.C,K_23*
X263763750Y-86190000D03*
X273923750Y-86190000D03*
D10*
X268843750Y-86190000D03*
D12*
X265058750Y-83700000D03*
X271408750Y-81160000D03*
G04 #@! TD*
D10*
G04 #@! TO.C,K_2*
X90250000Y-67040000D03*
D11*
X85170000Y-67140000D03*
X95330000Y-67140000D03*
D12*
X86440000Y-64600000D03*
X92790000Y-62060000D03*
G04 #@! TD*
D10*
G04 #@! TO.C,K_13*
X75962500Y-86090000D03*
D11*
X70882500Y-86190000D03*
X81042500Y-86190000D03*
D12*
X72152500Y-83650000D03*
X78502500Y-81110000D03*
G04 #@! TD*
D10*
G04 #@! TO.C,K_7*
X185500000Y-67040000D03*
D11*
X180420000Y-67140000D03*
X190580000Y-67140000D03*
D12*
X181690000Y-64600000D03*
X188040000Y-62060000D03*
G04 #@! TD*
D10*
G04 #@! TO.C,K_28*
X137875000Y-105140000D03*
D11*
X132795000Y-105240000D03*
X142955000Y-105240000D03*
D12*
X134065000Y-102700000D03*
X140415000Y-100160000D03*
G04 #@! TD*
D10*
G04 #@! TO.C,K_19*
X190262500Y-86090000D03*
D11*
X185182500Y-86190000D03*
X195342500Y-86190000D03*
D12*
X186452500Y-83650000D03*
X192802500Y-81110000D03*
G04 #@! TD*
D11*
G04 #@! TO.C,K_40*
X125651250Y-124290000D03*
X135811250Y-124290000D03*
D10*
X130731250Y-124290000D03*
D12*
X126946250Y-121800000D03*
X133296250Y-119260000D03*
G04 #@! TD*
D10*
G04 #@! TO.C,K_34*
X252175000Y-105140000D03*
D11*
X247095000Y-105240000D03*
X257255000Y-105240000D03*
D12*
X248365000Y-102700000D03*
X254715000Y-100160000D03*
G04 #@! TD*
D10*
G04 #@! TO.C,K_45*
X214075000Y-124190000D03*
D11*
X208995000Y-124290000D03*
X219155000Y-124290000D03*
D12*
X210265000Y-121750000D03*
X216615000Y-119210000D03*
G04 #@! TD*
D10*
G04 #@! TO.C,K_38*
X90250000Y-124190000D03*
D11*
X85170000Y-124290000D03*
X95330000Y-124290000D03*
D12*
X86440000Y-121750000D03*
X92790000Y-119210000D03*
G04 #@! TD*
D10*
G04 #@! TO.C,K_5*
X147400000Y-67040000D03*
D11*
X142320000Y-67140000D03*
X152480000Y-67140000D03*
D12*
X143590000Y-64600000D03*
X149940000Y-62060000D03*
G04 #@! TD*
D10*
G04 #@! TO.C,K_22*
X247412500Y-86090000D03*
D11*
X242332500Y-86190000D03*
X252492500Y-86190000D03*
D12*
X243602500Y-83650000D03*
X249952500Y-81110000D03*
G04 #@! TD*
D10*
G04 #@! TO.C,K_10*
X242650000Y-67040000D03*
D11*
X237570000Y-67140000D03*
X247730000Y-67140000D03*
D12*
X238840000Y-64600000D03*
X245190000Y-62060000D03*
G04 #@! TD*
D10*
G04 #@! TO.C,K_14*
X95012500Y-86090000D03*
D11*
X89932500Y-86190000D03*
X100092500Y-86190000D03*
D12*
X91202500Y-83650000D03*
X97552500Y-81110000D03*
G04 #@! TD*
D10*
G04 #@! TO.C,K_4*
X128350000Y-67040000D03*
D11*
X123270000Y-67140000D03*
X133430000Y-67140000D03*
D12*
X124540000Y-64600000D03*
X130890000Y-62060000D03*
G04 #@! TD*
D19*
G04 #@! TO.C,J2*
X25360000Y-62550000D03*
X31140000Y-62550000D03*
D20*
X32570000Y-58900000D03*
D21*
X32570000Y-63080000D03*
D20*
X23930000Y-58900000D03*
D21*
X23930000Y-63080000D03*
G04 #@! TD*
D22*
G04 #@! TO.C,J1*
X40580000Y-59560000D03*
X38040000Y-59560000D03*
X40580000Y-62100000D03*
X38040000Y-62100000D03*
X40580000Y-64640000D03*
D23*
X38040000Y-64640000D03*
G04 #@! TD*
D24*
G04 #@! TO.C,*
X46424800Y-75926440D03*
G04 #@! TD*
G04 #@! TO.C,*
X161740800Y-94722440D03*
G04 #@! TD*
G04 #@! TO.C,*
X276993300Y-75926440D03*
G04 #@! TD*
G04 #@! TO.C,*
X46424800Y-114534440D03*
G04 #@! TD*
G04 #@! TO.C,*
X276993300Y-114000000D03*
G04 #@! TD*
M02*
