M48
INCH
T1C0.0118
T2C0.0157
T3C0.0236
T4C0.0394
T5C0.0591
T6C0.0984
T7C0.1201
T8C0.1205
%
G90
G05
T1
X1.3213Y-3.2035
X1.3602Y-3.189
X1.5134Y-2.65
T2
X0.8008Y-2.7866
X0.8008Y-2.989
X0.8047Y-3.0709
X0.8593Y-3.3191
X0.9203Y-3.3191
X0.9327Y-3.6008
X0.9728Y-2.7465
X0.9854Y-3.4472
X1.0157Y-2.5681
X1.0419Y-2.6415
X1.1445Y-4.3004
X1.2138Y-3.3756
X1.2228Y-2.5764
X1.2598Y-2.8654
X1.2748Y-3.3772
X1.2874Y-3.0189
X1.3331Y-3.9161
X1.3358Y-2.6925
X1.3516Y-2.8957
X1.3906Y-2.7917
X1.4185Y-3.0776
X1.4197Y-3.0189
X1.4839Y-4.2228
X1.539Y-3.3063
X1.5429Y-3.0437
X1.5925Y-2.878
X1.6427Y-3.1478
X1.6886Y-2.6866
X1.7031Y-4.1638
X1.7394Y-2.7587
X1.7807Y-3.5161
X7.3144Y-4.2329
X7.3362Y-4.4654
X7.5163Y-4.2329
X7.9937Y-5.0728
T4
X0.9646Y-3.8252
X1.035Y-4.1535
X1.035Y-4.7244
X1.0646Y-3.8252
X1.1335Y-4.1535
X1.1646Y-3.8252
X1.2319Y-4.1535
X1.2319Y-4.7244
X1.2646Y-3.8252
X1.4976Y-2.3449
X1.4976Y-2.4449
X1.4976Y-2.5449
X1.5976Y-2.3449
X1.5976Y-2.4449
X1.5976Y-2.5449
T7
X1.9031Y-2.5433
X1.9031Y-4.7933
X1.9979Y-3.2953
X2.0906Y-4.0433
X2.1531Y-2.4433
X2.1531Y-4.6933
X2.2479Y-3.1953
X2.3406Y-3.9433
X2.6531Y-2.5433
X2.6531Y-4.7933
X2.8406Y-3.2933
X2.9031Y-2.4433
X2.9031Y-4.6933
X3.0281Y-4.0433
X3.0906Y-3.1933
X3.2781Y-3.9433
X3.4031Y-2.5433
X3.4031Y-4.7933
X3.5906Y-3.2933
X3.6531Y-2.4433
X3.6531Y-4.6933
X3.7781Y-4.0433
X3.8406Y-3.1933
X4.0281Y-3.9433
X4.1531Y-2.5433
X4.1531Y-4.7933
X4.3406Y-3.2933
X4.4031Y-2.4433
X4.4031Y-4.6933
X4.5281Y-4.0433
X4.5906Y-3.1933
X4.7781Y-3.9433
X4.9031Y-2.5433
X4.9979Y-4.7953
X5.0906Y-3.2933
X5.1531Y-2.4433
X5.2479Y-4.6953
X5.2781Y-4.0433
X5.3406Y-3.1933
X5.4219Y-5.0894
X5.5281Y-3.9433
X5.6531Y-2.5433
X5.6719Y-4.9894
X5.8406Y-3.2933
X5.9031Y-2.4433
X6.0281Y-4.0433
X6.0906Y-3.1933
X6.2781Y-3.9433
X6.4031Y-2.5433
X6.5906Y-3.2933
X6.6531Y-2.4433
X6.7781Y-4.0433
X6.8406Y-3.1933
X7.0281Y-3.9433
X7.1094Y-5.0894
X7.1531Y-2.5433
X7.3406Y-3.2933
X7.3594Y-4.9894
X7.4031Y-2.4433
X7.4354Y-4.7953
X7.5281Y-4.0433
X7.5906Y-3.1933
X7.6854Y-4.6953
X7.7781Y-3.9433
X7.9031Y-2.5433
X8.0906Y-3.2933
X8.1531Y-2.4433
X8.2781Y-4.0433
X8.2781Y-4.7933
X8.3406Y-3.1933
X8.5281Y-3.9433
X8.5281Y-4.6933
X8.6531Y-2.5433
X8.8406Y-3.2933
X8.9031Y-2.4433
X9.0281Y-4.0433
X9.0281Y-4.7933
X9.0906Y-3.1933
X9.2781Y-3.9433
X9.2781Y-4.6933
X9.4031Y-2.5433
X9.5906Y-3.2933
X9.6531Y-2.4433
X9.7781Y-4.0433
X9.7781Y-4.7933
X9.8406Y-3.1933
X10.0281Y-3.9433
X10.0281Y-4.6933
X10.3406Y-2.5433
X10.4354Y-3.2953
X10.5281Y-4.0433
X10.5281Y-4.7933
X10.5906Y-2.4433
X10.6854Y-3.1953
X10.7781Y-3.9433
X10.7781Y-4.6933
T8
X6.2156Y-4.7933
X6.4656Y-4.6933
T3
G00X0.9421Y-2.3071
M15
G01X0.9421Y-2.3307
M16
G05
G00X0.9421Y-2.4618
M15
G01X0.9421Y-2.5051
M16
G05
G00X1.2823Y-2.3071
M15
G01X1.2823Y-2.3307
M16
G05
G00X1.2823Y-2.4618
M15
G01X1.2823Y-2.5051
M16
G05
T5
G00X0.913Y-4.4232
M15
G01X0.913Y-4.4744
M16
G05
G00X1.3539Y-4.4232
M15
G01X1.3539Y-4.4744
M16
G05
T6
G00X1.7785Y-2.9892
M15
G01X1.877Y-2.9892
M16
G05
G00X1.7785Y-4.5092
M15
G01X1.877Y-4.5092
M16
G05
G00X6.3185Y-3.7292
M15
G01X6.417Y-3.7292
M16
G05
G00X10.856Y-2.9892
M15
G01X10.9545Y-2.9892
M16
G05
G00X10.856Y-4.4882
M15
G01X10.9545Y-4.4882
M16
G05
T0
M30
