G04 #@! TF.GenerationSoftware,KiCad,Pcbnew,(6.0.0)*
G04 #@! TF.CreationDate,2022-06-02T13:00:09+05:00*
G04 #@! TF.ProjectId,keyboard,6b657962-6f61-4726-942e-6b696361645f,rev?*
G04 #@! TF.SameCoordinates,Original*
G04 #@! TF.FileFunction,Legend,Top*
G04 #@! TF.FilePolarity,Positive*
%FSLAX46Y46*%
G04 Gerber Fmt 4.6, Leading zero omitted, Abs format (unit mm)*
G04 Created by KiCad (PCBNEW (6.0.0)) date 2022-06-02 13:00:09*
%MOMM*%
%LPD*%
G01*
G04 APERTURE LIST*
%ADD10C,0.150000*%
%ADD11C,0.120000*%
G04 APERTURE END LIST*
D10*
X25941428Y-58532380D02*
X26512857Y-58532380D01*
X26227142Y-59532380D02*
X26227142Y-58532380D01*
X26750952Y-58865714D02*
X26989047Y-59532380D01*
X27227142Y-58865714D02*
X26989047Y-59532380D01*
X26893809Y-59770476D01*
X26846190Y-59818095D01*
X26750952Y-59865714D01*
X27608095Y-58865714D02*
X27608095Y-59865714D01*
X27608095Y-58913333D02*
X27703333Y-58865714D01*
X27893809Y-58865714D01*
X27989047Y-58913333D01*
X28036666Y-58960952D01*
X28084285Y-59056190D01*
X28084285Y-59341904D01*
X28036666Y-59437142D01*
X27989047Y-59484761D01*
X27893809Y-59532380D01*
X27703333Y-59532380D01*
X27608095Y-59484761D01*
X28893809Y-59484761D02*
X28798571Y-59532380D01*
X28608095Y-59532380D01*
X28512857Y-59484761D01*
X28465238Y-59389523D01*
X28465238Y-59008571D01*
X28512857Y-58913333D01*
X28608095Y-58865714D01*
X28798571Y-58865714D01*
X28893809Y-58913333D01*
X28941428Y-59008571D01*
X28941428Y-59103809D01*
X28465238Y-59199047D01*
X30703333Y-59437142D02*
X30655714Y-59484761D01*
X30512857Y-59532380D01*
X30417619Y-59532380D01*
X30274761Y-59484761D01*
X30179523Y-59389523D01*
X30131904Y-59294285D01*
X30084285Y-59103809D01*
X30084285Y-58960952D01*
X30131904Y-58770476D01*
X30179523Y-58675238D01*
X30274761Y-58580000D01*
X30417619Y-58532380D01*
X30512857Y-58532380D01*
X30655714Y-58580000D01*
X30703333Y-58627619D01*
X25094761Y-60702380D02*
X24618571Y-60702380D01*
X24570952Y-61178571D01*
X24618571Y-61130952D01*
X24713809Y-61083333D01*
X24951904Y-61083333D01*
X25047142Y-61130952D01*
X25094761Y-61178571D01*
X25142380Y-61273809D01*
X25142380Y-61511904D01*
X25094761Y-61607142D01*
X25047142Y-61654761D01*
X24951904Y-61702380D01*
X24713809Y-61702380D01*
X24618571Y-61654761D01*
X24570952Y-61607142D01*
X25428095Y-60702380D02*
X25761428Y-61702380D01*
X26094761Y-60702380D01*
X27666190Y-60702380D02*
X27190000Y-60702380D01*
X27142380Y-61178571D01*
X27190000Y-61130952D01*
X27285238Y-61083333D01*
X27523333Y-61083333D01*
X27618571Y-61130952D01*
X27666190Y-61178571D01*
X27713809Y-61273809D01*
X27713809Y-61511904D01*
X27666190Y-61607142D01*
X27618571Y-61654761D01*
X27523333Y-61702380D01*
X27285238Y-61702380D01*
X27190000Y-61654761D01*
X27142380Y-61607142D01*
X28332857Y-60702380D02*
X28428095Y-60702380D01*
X28523333Y-60750000D01*
X28570952Y-60797619D01*
X28618571Y-60892857D01*
X28666190Y-61083333D01*
X28666190Y-61321428D01*
X28618571Y-61511904D01*
X28570952Y-61607142D01*
X28523333Y-61654761D01*
X28428095Y-61702380D01*
X28332857Y-61702380D01*
X28237619Y-61654761D01*
X28190000Y-61607142D01*
X28142380Y-61511904D01*
X28094761Y-61321428D01*
X28094761Y-61083333D01*
X28142380Y-60892857D01*
X28190000Y-60797619D01*
X28237619Y-60750000D01*
X28332857Y-60702380D01*
X29285238Y-60702380D02*
X29380476Y-60702380D01*
X29475714Y-60750000D01*
X29523333Y-60797619D01*
X29570952Y-60892857D01*
X29618571Y-61083333D01*
X29618571Y-61321428D01*
X29570952Y-61511904D01*
X29523333Y-61607142D01*
X29475714Y-61654761D01*
X29380476Y-61702380D01*
X29285238Y-61702380D01*
X29190000Y-61654761D01*
X29142380Y-61607142D01*
X29094761Y-61511904D01*
X29047142Y-61321428D01*
X29047142Y-61083333D01*
X29094761Y-60892857D01*
X29142380Y-60797619D01*
X29190000Y-60750000D01*
X29285238Y-60702380D01*
X30047142Y-61702380D02*
X30047142Y-61035714D01*
X30047142Y-61130952D02*
X30094761Y-61083333D01*
X30190000Y-61035714D01*
X30332857Y-61035714D01*
X30428095Y-61083333D01*
X30475714Y-61178571D01*
X30475714Y-61702380D01*
X30475714Y-61178571D02*
X30523333Y-61083333D01*
X30618571Y-61035714D01*
X30761428Y-61035714D01*
X30856666Y-61083333D01*
X30904285Y-61178571D01*
X30904285Y-61702380D01*
X31332857Y-61416666D02*
X31809047Y-61416666D01*
X31237619Y-61702380D02*
X31570952Y-60702380D01*
X31904285Y-61702380D01*
X26625238Y-99119523D02*
X26577619Y-99262380D01*
X26577619Y-99500476D01*
X26625238Y-99595714D01*
X26672857Y-99643333D01*
X26768095Y-99690952D01*
X26863333Y-99690952D01*
X26958571Y-99643333D01*
X27006190Y-99595714D01*
X27053809Y-99500476D01*
X27101428Y-99310000D01*
X27149047Y-99214761D01*
X27196666Y-99167142D01*
X27291904Y-99119523D01*
X27387142Y-99119523D01*
X27482380Y-99167142D01*
X27530000Y-99214761D01*
X27577619Y-99310000D01*
X27577619Y-99548095D01*
X27530000Y-99690952D01*
X26672857Y-100690952D02*
X26625238Y-100643333D01*
X26577619Y-100500476D01*
X26577619Y-100405238D01*
X26625238Y-100262380D01*
X26720476Y-100167142D01*
X26815714Y-100119523D01*
X27006190Y-100071904D01*
X27149047Y-100071904D01*
X27339523Y-100119523D01*
X27434761Y-100167142D01*
X27530000Y-100262380D01*
X27577619Y-100405238D01*
X27577619Y-100500476D01*
X27530000Y-100643333D01*
X27482380Y-100690952D01*
X26577619Y-101595714D02*
X26577619Y-101119523D01*
X27577619Y-101119523D01*
X32410000Y-99788095D02*
X32457619Y-99692857D01*
X32457619Y-99550000D01*
X32410000Y-99407142D01*
X32314761Y-99311904D01*
X32219523Y-99264285D01*
X32029047Y-99216666D01*
X31886190Y-99216666D01*
X31695714Y-99264285D01*
X31600476Y-99311904D01*
X31505238Y-99407142D01*
X31457619Y-99550000D01*
X31457619Y-99645238D01*
X31505238Y-99788095D01*
X31552857Y-99835714D01*
X31886190Y-99835714D01*
X31886190Y-99645238D01*
X31457619Y-100264285D02*
X32457619Y-100264285D01*
X31457619Y-100835714D01*
X32457619Y-100835714D01*
X31457619Y-101311904D02*
X32457619Y-101311904D01*
X32457619Y-101550000D01*
X32410000Y-101692857D01*
X32314761Y-101788095D01*
X32219523Y-101835714D01*
X32029047Y-101883333D01*
X31886190Y-101883333D01*
X31695714Y-101835714D01*
X31600476Y-101788095D01*
X31505238Y-101692857D01*
X31457619Y-101550000D01*
X31457619Y-101311904D01*
X23955238Y-99205714D02*
X23907619Y-99348571D01*
X23907619Y-99586666D01*
X23955238Y-99681904D01*
X24002857Y-99729523D01*
X24098095Y-99777142D01*
X24193333Y-99777142D01*
X24288571Y-99729523D01*
X24336190Y-99681904D01*
X24383809Y-99586666D01*
X24431428Y-99396190D01*
X24479047Y-99300952D01*
X24526666Y-99253333D01*
X24621904Y-99205714D01*
X24717142Y-99205714D01*
X24812380Y-99253333D01*
X24860000Y-99300952D01*
X24907619Y-99396190D01*
X24907619Y-99634285D01*
X24860000Y-99777142D01*
X23907619Y-100205714D02*
X24907619Y-100205714D01*
X24907619Y-100443809D01*
X24860000Y-100586666D01*
X24764761Y-100681904D01*
X24669523Y-100729523D01*
X24479047Y-100777142D01*
X24336190Y-100777142D01*
X24145714Y-100729523D01*
X24050476Y-100681904D01*
X23955238Y-100586666D01*
X23907619Y-100443809D01*
X23907619Y-100205714D01*
X24193333Y-101158095D02*
X24193333Y-101634285D01*
X23907619Y-101062857D02*
X24907619Y-101396190D01*
X23907619Y-101729523D01*
X30127619Y-99176666D02*
X29127619Y-99510000D01*
X30127619Y-99843333D01*
X29222857Y-100748095D02*
X29175238Y-100700476D01*
X29127619Y-100557619D01*
X29127619Y-100462380D01*
X29175238Y-100319523D01*
X29270476Y-100224285D01*
X29365714Y-100176666D01*
X29556190Y-100129047D01*
X29699047Y-100129047D01*
X29889523Y-100176666D01*
X29984761Y-100224285D01*
X30080000Y-100319523D01*
X30127619Y-100462380D01*
X30127619Y-100557619D01*
X30080000Y-100700476D01*
X30032380Y-100748095D01*
X29222857Y-101748095D02*
X29175238Y-101700476D01*
X29127619Y-101557619D01*
X29127619Y-101462380D01*
X29175238Y-101319523D01*
X29270476Y-101224285D01*
X29365714Y-101176666D01*
X29556190Y-101129047D01*
X29699047Y-101129047D01*
X29889523Y-101176666D01*
X29984761Y-101224285D01*
X30080000Y-101319523D01*
X30127619Y-101462380D01*
X30127619Y-101557619D01*
X30080000Y-101700476D01*
X30032380Y-101748095D01*
G04 #@! TO.C,Brd1*
X27333333Y-86234571D02*
X27476190Y-86282190D01*
X27523809Y-86329809D01*
X27571428Y-86425047D01*
X27571428Y-86567904D01*
X27523809Y-86663142D01*
X27476190Y-86710761D01*
X27380952Y-86758380D01*
X27000000Y-86758380D01*
X27000000Y-85758380D01*
X27333333Y-85758380D01*
X27428571Y-85806000D01*
X27476190Y-85853619D01*
X27523809Y-85948857D01*
X27523809Y-86044095D01*
X27476190Y-86139333D01*
X27428571Y-86186952D01*
X27333333Y-86234571D01*
X27000000Y-86234571D01*
X28000000Y-86758380D02*
X28000000Y-86091714D01*
X28000000Y-86282190D02*
X28047619Y-86186952D01*
X28095238Y-86139333D01*
X28190476Y-86091714D01*
X28285714Y-86091714D01*
X29047619Y-86758380D02*
X29047619Y-85758380D01*
X29047619Y-86710761D02*
X28952380Y-86758380D01*
X28761904Y-86758380D01*
X28666666Y-86710761D01*
X28619047Y-86663142D01*
X28571428Y-86567904D01*
X28571428Y-86282190D01*
X28619047Y-86186952D01*
X28666666Y-86139333D01*
X28761904Y-86091714D01*
X28952380Y-86091714D01*
X29047619Y-86139333D01*
X30047619Y-86758380D02*
X29476190Y-86758380D01*
X29761904Y-86758380D02*
X29761904Y-85758380D01*
X29666666Y-85901238D01*
X29571428Y-85996476D01*
X29476190Y-86044095D01*
G04 #@! TO.C,E1*
X35918571Y-108990476D02*
X35918571Y-108657142D01*
X36442380Y-108514285D02*
X36442380Y-108990476D01*
X35442380Y-108990476D01*
X35442380Y-108514285D01*
X36442380Y-107561904D02*
X36442380Y-108133333D01*
X36442380Y-107847619D02*
X35442380Y-107847619D01*
X35585238Y-107942857D01*
X35680476Y-108038095D01*
X35728095Y-108133333D01*
G04 #@! TO.C,*
D11*
G04 #@! TO.C,K_18*
X178212500Y-93190000D02*
X164212500Y-93190000D01*
X178212500Y-79190000D02*
X178212500Y-93190000D01*
X164212500Y-79190000D02*
X178212500Y-79190000D01*
X164212500Y-79190000D02*
X164212500Y-93190000D01*
G04 #@! TO.C,K_35*
X278225000Y-112240000D02*
X264225000Y-112240000D01*
X278225000Y-98240000D02*
X278225000Y-112240000D01*
X264225000Y-98240000D02*
X278225000Y-98240000D01*
X264225000Y-98240000D02*
X264225000Y-112240000D01*
G04 #@! TO.C,K_17*
X159162500Y-93190000D02*
X145162500Y-93190000D01*
X159162500Y-79190000D02*
X159162500Y-93190000D01*
X145162500Y-79190000D02*
X159162500Y-79190000D01*
X145162500Y-79190000D02*
X145162500Y-93190000D01*
G04 #@! TO.C,K_21*
X235362500Y-93190000D02*
X221362500Y-93190000D01*
X235362500Y-79190000D02*
X235362500Y-93190000D01*
X221362500Y-79190000D02*
X235362500Y-79190000D01*
X221362500Y-79190000D02*
X221362500Y-93190000D01*
G04 #@! TO.C,K_27*
X125825000Y-112240000D02*
X111825000Y-112240000D01*
X125825000Y-98240000D02*
X125825000Y-112240000D01*
X111825000Y-98240000D02*
X125825000Y-98240000D01*
X111825000Y-98240000D02*
X111825000Y-112240000D01*
G04 #@! TO.C,K_47*
X259175000Y-131290000D02*
X245175000Y-131290000D01*
X259175000Y-117290000D02*
X259175000Y-131290000D01*
X245175000Y-117290000D02*
X259175000Y-117290000D01*
X245175000Y-117290000D02*
X245175000Y-131290000D01*
G04 #@! TO.C,K_20*
X216312500Y-93190000D02*
X202312500Y-93190000D01*
X216312500Y-79190000D02*
X216312500Y-93190000D01*
X202312500Y-79190000D02*
X216312500Y-79190000D01*
X202312500Y-79190000D02*
X202312500Y-93190000D01*
G04 #@! TO.C,K_11*
X273462500Y-60140000D02*
X273462500Y-74140000D01*
X273462500Y-74140000D02*
X259462500Y-74140000D01*
X259462500Y-60140000D02*
X259462500Y-74140000D01*
X259462500Y-60140000D02*
X273462500Y-60140000D01*
G04 #@! TO.C,K_41*
X147256250Y-131190000D02*
X133256250Y-131190000D01*
X133256250Y-117190000D02*
X147256250Y-117190000D01*
X147256250Y-131190000D02*
X147256250Y-117190000D01*
X133256250Y-131190000D02*
X133256250Y-117190000D01*
G04 #@! TO.C,Brd1*
X15038000Y-95577000D02*
X15292000Y-95565000D01*
X15038000Y-78940000D02*
X15038000Y-95577000D01*
X18378000Y-78965000D02*
X15038000Y-78940000D01*
X18378000Y-95565000D02*
X15292000Y-95565000D01*
X33199000Y-98371000D02*
X33199000Y-95958000D01*
X23420000Y-95958000D02*
X33199000Y-95958000D01*
X23420000Y-98371000D02*
X23420000Y-95958000D01*
X33199000Y-98371000D02*
X23420000Y-98371000D01*
X41478000Y-95565000D02*
X18378000Y-95565000D01*
X41478000Y-78965000D02*
X41478000Y-95565000D01*
X18378000Y-78965000D02*
X41478000Y-78965000D01*
X41900000Y-71560000D02*
X41900000Y-98860000D01*
X14500000Y-71560000D02*
X41900000Y-71560000D01*
X14500000Y-98860000D02*
X14500000Y-71560000D01*
X41900000Y-98860000D02*
X14500000Y-98860000D01*
G04 #@! TO.C,K_43*
X190118750Y-131190000D02*
X176118750Y-131190000D01*
X176118750Y-117190000D02*
X190118750Y-117190000D01*
X190118750Y-131190000D02*
X190118750Y-117190000D01*
X176118750Y-131190000D02*
X176118750Y-117190000D01*
G04 #@! TO.C,K_32*
X221075000Y-112240000D02*
X207075000Y-112240000D01*
X221075000Y-98240000D02*
X221075000Y-112240000D01*
X207075000Y-98240000D02*
X221075000Y-98240000D01*
X207075000Y-98240000D02*
X207075000Y-112240000D01*
G04 #@! TO.C,K_25*
X87725000Y-112240000D02*
X73725000Y-112240000D01*
X87725000Y-98240000D02*
X87725000Y-112240000D01*
X73725000Y-98240000D02*
X87725000Y-98240000D01*
X73725000Y-98240000D02*
X73725000Y-112240000D01*
G04 #@! TO.C,K_1*
X78200000Y-74140000D02*
X64200000Y-74140000D01*
X78200000Y-60140000D02*
X78200000Y-74140000D01*
X64200000Y-60140000D02*
X78200000Y-60140000D01*
X64200000Y-60140000D02*
X64200000Y-74140000D01*
G04 #@! TO.C,K_15*
X121062500Y-93190000D02*
X107062500Y-93190000D01*
X121062500Y-79190000D02*
X121062500Y-93190000D01*
X107062500Y-79190000D02*
X121062500Y-79190000D01*
X107062500Y-79190000D02*
X107062500Y-93190000D01*
G04 #@! TO.C,K_33*
X240125000Y-112240000D02*
X226125000Y-112240000D01*
X240125000Y-98240000D02*
X240125000Y-112240000D01*
X226125000Y-98240000D02*
X240125000Y-98240000D01*
X226125000Y-98240000D02*
X226125000Y-112240000D01*
G04 #@! TO.C,K_37*
X78200000Y-131290000D02*
X64200000Y-131290000D01*
X78200000Y-117290000D02*
X78200000Y-131290000D01*
X64200000Y-117290000D02*
X78200000Y-117290000D01*
X64200000Y-117290000D02*
X64200000Y-131290000D01*
G04 #@! TO.C,K_26*
X106775000Y-112240000D02*
X92775000Y-112240000D01*
X106775000Y-98240000D02*
X106775000Y-112240000D01*
X92775000Y-98240000D02*
X106775000Y-98240000D01*
X92775000Y-98240000D02*
X92775000Y-112240000D01*
G04 #@! TO.C,K_3*
X116300000Y-74140000D02*
X102300000Y-74140000D01*
X116300000Y-60140000D02*
X116300000Y-74140000D01*
X102300000Y-60140000D02*
X116300000Y-60140000D01*
X102300000Y-60140000D02*
X102300000Y-74140000D01*
G04 #@! TO.C,K_9*
X230600000Y-74140000D02*
X216600000Y-74140000D01*
X230600000Y-60140000D02*
X230600000Y-74140000D01*
X216600000Y-60140000D02*
X230600000Y-60140000D01*
X216600000Y-60140000D02*
X216600000Y-74140000D01*
G04 #@! TO.C,K_16*
X140112500Y-93190000D02*
X126112500Y-93190000D01*
X140112500Y-79190000D02*
X140112500Y-93190000D01*
X126112500Y-79190000D02*
X140112500Y-79190000D01*
X126112500Y-79190000D02*
X126112500Y-93190000D01*
G04 #@! TO.C,E1*
X32590000Y-105500000D02*
X32890000Y-105200000D01*
X32890000Y-105200000D02*
X32890000Y-105800000D01*
X34690000Y-115000000D02*
X34690000Y-119100000D01*
X22890000Y-111000000D02*
X22890000Y-106900000D01*
X22890000Y-119100000D02*
X22890000Y-115000000D01*
X29290000Y-113000000D02*
X28290000Y-113000000D01*
X28790000Y-112500000D02*
X28790000Y-113500000D01*
X25290000Y-119100000D02*
X22890000Y-119100000D01*
X34690000Y-106900000D02*
X22890000Y-106900000D01*
X32890000Y-105800000D02*
X32590000Y-105500000D01*
X34690000Y-119100000D02*
X32290000Y-119100000D01*
X30090000Y-119100000D02*
X27490000Y-119100000D01*
X34690000Y-111000000D02*
X34690000Y-106900000D01*
X31790000Y-113000000D02*
G75*
G03*
X31790000Y-113000000I-3000000J0D01*
G01*
G04 #@! TO.C,G\u002A\u002A\u002A*
G36*
X32288847Y-129476896D02*
G01*
X32336631Y-129693321D01*
X32351656Y-130064620D01*
X32352846Y-130415040D01*
X32352846Y-131447561D01*
X32094716Y-131447561D01*
X31963420Y-131437910D01*
X31886458Y-131379959D01*
X31849329Y-131230209D01*
X31837535Y-130945162D01*
X31836586Y-130673171D01*
X31828473Y-130264701D01*
X31799154Y-130024933D01*
X31741162Y-129916523D01*
X31681708Y-129898780D01*
X31548429Y-129831798D01*
X31533236Y-129681842D01*
X31623001Y-129525395D01*
X31759147Y-129447598D01*
X32019084Y-129384962D01*
X32189324Y-129384419D01*
X32288847Y-129476896D01*
G37*
G36*
X32711886Y-130294115D02*
G01*
X32927526Y-130039729D01*
X32930861Y-130037527D01*
X33157737Y-129925461D01*
X33337584Y-129951842D01*
X33395495Y-129984396D01*
X33525181Y-130045074D01*
X33580221Y-129979316D01*
X33591865Y-129747849D01*
X33591870Y-129737596D01*
X33608422Y-129493037D01*
X33682811Y-129400205D01*
X33824187Y-129401152D01*
X33931312Y-129428584D01*
X34000958Y-129500426D01*
X34043035Y-129656027D01*
X34067455Y-129934737D01*
X34084128Y-130375907D01*
X34086056Y-130440853D01*
X34115608Y-131447561D01*
X33853739Y-131447561D01*
X33658036Y-131405764D01*
X33591870Y-131323658D01*
X33561394Y-131251824D01*
X33467968Y-131323658D01*
X33260739Y-131438645D01*
X33025435Y-131370146D01*
X32886758Y-131266870D01*
X32688864Y-130981221D01*
X32635891Y-130659419D01*
X33078679Y-130659419D01*
X33118192Y-130893337D01*
X33237536Y-131027896D01*
X33385681Y-131005396D01*
X33504761Y-130856217D01*
X33540244Y-130671757D01*
X33507263Y-130445408D01*
X33385272Y-130366285D01*
X33335154Y-130363414D01*
X33153995Y-130448035D01*
X33078679Y-130659419D01*
X32635891Y-130659419D01*
X32631453Y-130632458D01*
X32711886Y-130294115D01*
G37*
G36*
X34766787Y-129935359D02*
G01*
X34830895Y-130005665D01*
X34898157Y-130057613D01*
X35037399Y-130002032D01*
X35193042Y-129947003D01*
X35241652Y-130049282D01*
X35243903Y-130128441D01*
X35161852Y-130368427D01*
X35037399Y-130494331D01*
X34886186Y-130666834D01*
X34832049Y-130964498D01*
X34830895Y-131035428D01*
X34816735Y-131301163D01*
X34749998Y-131419130D01*
X34594293Y-131447426D01*
X34572765Y-131447561D01*
X34441469Y-131437910D01*
X34364506Y-131379959D01*
X34327378Y-131230209D01*
X34315583Y-130945162D01*
X34314635Y-130673171D01*
X34317852Y-130279283D01*
X34337169Y-130048396D01*
X34387085Y-129937010D01*
X34482101Y-129901627D01*
X34572765Y-129898780D01*
X34766787Y-129935359D01*
G37*
G36*
X35617745Y-130141370D02*
G01*
X35861333Y-129950937D01*
X36042252Y-129898780D01*
X36358964Y-129988136D01*
X36595552Y-130215882D01*
X36689425Y-130521539D01*
X36689431Y-130524147D01*
X36672955Y-130718063D01*
X36584377Y-130804984D01*
X36364976Y-130827491D01*
X36270330Y-130828049D01*
X35992391Y-130851333D01*
X35912294Y-130920516D01*
X35921050Y-130941024D01*
X36064760Y-131011058D01*
X36236244Y-131007093D01*
X36471986Y-131014078D01*
X36608061Y-131107866D01*
X36607121Y-131241079D01*
X36496382Y-131337108D01*
X36126499Y-131441443D01*
X35784078Y-131341471D01*
X35600592Y-131194124D01*
X35424510Y-130942481D01*
X35347304Y-130682526D01*
X35347155Y-130673171D01*
X35422546Y-130415040D01*
X35863415Y-130415040D01*
X35949894Y-130498931D01*
X36069919Y-130518293D01*
X36237700Y-130475053D01*
X36276423Y-130415040D01*
X36189945Y-130331150D01*
X36069919Y-130311788D01*
X35902138Y-130355028D01*
X35863415Y-130415040D01*
X35422546Y-130415040D01*
X35425319Y-130405547D01*
X35617745Y-130141370D01*
G37*
G36*
X37212589Y-129947398D02*
G01*
X37326153Y-130126619D01*
X37375698Y-130285975D01*
X37478872Y-130673171D01*
X37581162Y-130311788D01*
X37706224Y-130037303D01*
X37876830Y-129950406D01*
X38048764Y-130038926D01*
X38172497Y-130311788D01*
X38274788Y-130673171D01*
X38377962Y-130285975D01*
X38478019Y-130020099D01*
X38614884Y-129910567D01*
X38713768Y-129898780D01*
X38946400Y-129898780D01*
X38747184Y-130595403D01*
X38647980Y-130953658D01*
X38576622Y-131233020D01*
X38548012Y-131375019D01*
X38547968Y-131376974D01*
X38462438Y-131431051D01*
X38324334Y-131428929D01*
X38108774Y-131293965D01*
X37975999Y-131034553D01*
X37851298Y-130673171D01*
X37754709Y-131034553D01*
X37629455Y-131316238D01*
X37437630Y-131428050D01*
X37431906Y-131428929D01*
X37254978Y-131422567D01*
X37205691Y-131376974D01*
X37179057Y-131241538D01*
X37109091Y-130966451D01*
X37010697Y-130610183D01*
X37006475Y-130595403D01*
X36807259Y-129898780D01*
X37039891Y-129898780D01*
X37212589Y-129947398D01*
G37*
G36*
X30924045Y-126097955D02*
G01*
X31134583Y-126198894D01*
X31192056Y-126346261D01*
X31132928Y-126542388D01*
X31009329Y-126731872D01*
X30849204Y-126758197D01*
X30777417Y-126738406D01*
X30416654Y-126657323D01*
X30193192Y-126676505D01*
X30124191Y-126771192D01*
X30226811Y-126916620D01*
X30518213Y-127088027D01*
X30531132Y-127093790D01*
X30972385Y-127359923D01*
X31226521Y-127680257D01*
X31285808Y-128043992D01*
X31271973Y-128128593D01*
X31157879Y-128412855D01*
X31012731Y-128606174D01*
X30726599Y-128753312D01*
X30327911Y-128821904D01*
X29898707Y-128802519D01*
X29699189Y-128757161D01*
X29410419Y-128640163D01*
X29300265Y-128495146D01*
X29341524Y-128277270D01*
X29369132Y-128213102D01*
X29460161Y-128049665D01*
X29572640Y-128012150D01*
X29783526Y-128082092D01*
X29831761Y-128102113D01*
X30212393Y-128221554D01*
X30440014Y-128218659D01*
X30504351Y-128120326D01*
X30395130Y-127953448D01*
X30102079Y-127744924D01*
X29990934Y-127685391D01*
X29696856Y-127512810D01*
X29485448Y-127345238D01*
X29423048Y-127262199D01*
X29343760Y-126825440D01*
X29442062Y-126454538D01*
X29692442Y-126178025D01*
X30069385Y-126024429D01*
X30533722Y-126020158D01*
X30924045Y-126097955D01*
G37*
G36*
X34505624Y-126071704D02*
G01*
X34793329Y-126163700D01*
X34988764Y-126275731D01*
X35035103Y-126357130D01*
X34976109Y-126491020D01*
X34844720Y-126684415D01*
X34685493Y-126848005D01*
X34534164Y-126855837D01*
X34434007Y-126809847D01*
X34148428Y-126755368D01*
X33898845Y-126877903D01*
X33741173Y-127148923D01*
X33736774Y-127165582D01*
X33711022Y-127534570D01*
X33808627Y-127837466D01*
X33998829Y-128035781D01*
X34250869Y-128091031D01*
X34430466Y-128033511D01*
X34619177Y-127975263D01*
X34789353Y-128060888D01*
X34866419Y-128133131D01*
X35083289Y-128350000D01*
X34868992Y-128564297D01*
X34517996Y-128779854D01*
X34094567Y-128838532D01*
X33664616Y-128736760D01*
X33488618Y-128639055D01*
X33153567Y-128305114D01*
X32960012Y-127885843D01*
X32900759Y-127424923D01*
X32968615Y-126966039D01*
X33156384Y-126552873D01*
X33456872Y-126229108D01*
X33862885Y-126038427D01*
X33918894Y-126026462D01*
X34192022Y-126019404D01*
X34505624Y-126071704D01*
G37*
G36*
X35583195Y-127333051D02*
G01*
X35944643Y-127165159D01*
X36378252Y-127146875D01*
X36427865Y-127155144D01*
X36663482Y-127189961D01*
X36742762Y-127152302D01*
X36711037Y-127014113D01*
X36700736Y-126986267D01*
X36613880Y-126839246D01*
X36456031Y-126769025D01*
X36163510Y-126749613D01*
X36120533Y-126749463D01*
X35811424Y-126734853D01*
X35643001Y-126672721D01*
X35550392Y-126535299D01*
X35536397Y-126499423D01*
X35498795Y-126300547D01*
X35584930Y-126168296D01*
X35825725Y-126076137D01*
X36091377Y-126023204D01*
X36642940Y-126006409D01*
X37088014Y-126156425D01*
X37300982Y-126328111D01*
X37405763Y-126467053D01*
X37478519Y-126649838D01*
X37528883Y-126921387D01*
X37566487Y-127326624D01*
X37587636Y-127665031D01*
X37649814Y-128763008D01*
X37229853Y-128763008D01*
X36955592Y-128735587D01*
X36787589Y-128666837D01*
X36769007Y-128640351D01*
X36681817Y-128586792D01*
X36488203Y-128685778D01*
X36479298Y-128691977D01*
X36217746Y-128827147D01*
X35939981Y-128838576D01*
X35732947Y-128794815D01*
X35557191Y-128666741D01*
X35384561Y-128422136D01*
X35266758Y-128145177D01*
X35243903Y-127998604D01*
X35270031Y-127891054D01*
X36076375Y-127891054D01*
X36082025Y-128095891D01*
X36138754Y-128177913D01*
X36333597Y-128248538D01*
X36556151Y-128182037D01*
X36685799Y-128047032D01*
X36783894Y-127793495D01*
X36732160Y-127643833D01*
X36630326Y-127587027D01*
X36397615Y-127580018D01*
X36197269Y-127700229D01*
X36076375Y-127891054D01*
X35270031Y-127891054D01*
X35335689Y-127620787D01*
X35583195Y-127333051D01*
G37*
G36*
X19026213Y-126098798D02*
G01*
X19136074Y-126509298D01*
X19232163Y-126853734D01*
X19298333Y-127074700D01*
X19310942Y-127110975D01*
X19358661Y-127084480D01*
X19440598Y-126891110D01*
X19544057Y-126565095D01*
X19626863Y-126259146D01*
X19883013Y-125252439D01*
X20760539Y-125252439D01*
X20280181Y-126981910D01*
X19799823Y-128711382D01*
X18985098Y-128711382D01*
X18734727Y-127811943D01*
X18617724Y-127422171D01*
X18512987Y-127127800D01*
X18436218Y-126970588D01*
X18413097Y-126956545D01*
X18356098Y-127069789D01*
X18264394Y-127334986D01*
X18154039Y-127703921D01*
X18105025Y-127881797D01*
X17868211Y-128763008D01*
X17476836Y-128763008D01*
X17183129Y-128729292D01*
X17044067Y-128616685D01*
X17030815Y-128582317D01*
X16950302Y-128306872D01*
X16839321Y-127914861D01*
X16709004Y-127447048D01*
X16570483Y-126944194D01*
X16434891Y-126447063D01*
X16313361Y-125996418D01*
X16217026Y-125633022D01*
X16157018Y-125397636D01*
X16142545Y-125329878D01*
X16234413Y-125282687D01*
X16465898Y-125255255D01*
X16583643Y-125252439D01*
X17025009Y-125252439D01*
X17214438Y-126116431D01*
X17309410Y-126525069D01*
X17397430Y-126861193D01*
X17463647Y-127069436D01*
X17478666Y-127101449D01*
X17534346Y-127061977D01*
X17624072Y-126858187D01*
X17733542Y-126526525D01*
X17807551Y-126263270D01*
X18061639Y-125304065D01*
X18431447Y-125272781D01*
X18801255Y-125241498D01*
X19026213Y-126098798D01*
G37*
G36*
X21924391Y-126272713D02*
G01*
X22208334Y-126124594D01*
X22562968Y-125992959D01*
X22849461Y-126029458D01*
X23116482Y-126228640D01*
X23227871Y-126353112D01*
X23300783Y-126489569D01*
X23343316Y-126682556D01*
X23363570Y-126976621D01*
X23369644Y-127416307D01*
X23369919Y-127622542D01*
X23369919Y-128763008D01*
X22543903Y-128763008D01*
X22543903Y-127846382D01*
X22526644Y-127310177D01*
X22469430Y-126958371D01*
X22364105Y-126771321D01*
X22202514Y-126729384D01*
X22092356Y-126758859D01*
X22011549Y-126824093D01*
X21960849Y-126970350D01*
X21933989Y-127236219D01*
X21924701Y-127660286D01*
X21924391Y-127793160D01*
X21924391Y-128763008D01*
X20995122Y-128763008D01*
X20995122Y-125149187D01*
X21924391Y-125149187D01*
X21924391Y-126272713D01*
G37*
G36*
X24712196Y-128763008D02*
G01*
X23886179Y-128763008D01*
X23886179Y-126078455D01*
X24712196Y-126078455D01*
X24712196Y-128763008D01*
G37*
G36*
X28383937Y-126022874D02*
G01*
X28692092Y-126228640D01*
X28803481Y-126353112D01*
X28876393Y-126489569D01*
X28918926Y-126682556D01*
X28939180Y-126976621D01*
X28945254Y-127416307D01*
X28945529Y-127622542D01*
X28945529Y-128763008D01*
X28119513Y-128763008D01*
X28117932Y-127911179D01*
X28104667Y-127396768D01*
X28060891Y-127060218D01*
X27977222Y-126873968D01*
X27844275Y-126810460D01*
X27745758Y-126818053D01*
X27652856Y-126858643D01*
X27592243Y-126964001D01*
X27554953Y-127173835D01*
X27532018Y-127527853D01*
X27521939Y-127809107D01*
X27492251Y-128763008D01*
X26673984Y-128763008D01*
X26673984Y-127898008D01*
X26663754Y-127432173D01*
X26628638Y-127131419D01*
X26562000Y-126955130D01*
X26510451Y-126897288D01*
X26311414Y-126817393D01*
X26174882Y-126869743D01*
X26085009Y-126972791D01*
X26026011Y-127172741D01*
X25989834Y-127509521D01*
X25973013Y-127870463D01*
X25943180Y-128763008D01*
X25125204Y-128763008D01*
X25125204Y-126078455D01*
X25538212Y-126078455D01*
X25820872Y-126102067D01*
X25940326Y-126183113D01*
X25951220Y-126240827D01*
X25977699Y-126330356D01*
X26084885Y-126291519D01*
X26223274Y-126189201D01*
X26583523Y-126004018D01*
X26927197Y-126015198D01*
X27194439Y-126185902D01*
X27405138Y-126396600D01*
X27672998Y-126185902D01*
X28034538Y-126001923D01*
X28383937Y-126022874D01*
G37*
G36*
X32456098Y-128763008D02*
G01*
X31630082Y-128763008D01*
X31630082Y-126078455D01*
X32456098Y-126078455D01*
X32456098Y-128763008D01*
G37*
G36*
X38857724Y-128763008D02*
G01*
X38031708Y-128763008D01*
X38031708Y-125149187D01*
X38857724Y-125149187D01*
X38857724Y-128763008D01*
G37*
G36*
X24533272Y-125261418D02*
G01*
X24668594Y-125313264D01*
X24709569Y-125445336D01*
X24712196Y-125562195D01*
X24698727Y-125752669D01*
X24620958Y-125842883D01*
X24422849Y-125870200D01*
X24247561Y-125871951D01*
X23961851Y-125862972D01*
X23826529Y-125811126D01*
X23785554Y-125679054D01*
X23782927Y-125562195D01*
X23796396Y-125371721D01*
X23874164Y-125281507D01*
X24072274Y-125254190D01*
X24247561Y-125252439D01*
X24533272Y-125261418D01*
G37*
G36*
X32380427Y-125261418D02*
G01*
X32515748Y-125313264D01*
X32556724Y-125445336D01*
X32559350Y-125562195D01*
X32545881Y-125752669D01*
X32468113Y-125842883D01*
X32270004Y-125870200D01*
X32094716Y-125871951D01*
X31809005Y-125862972D01*
X31673683Y-125811126D01*
X31632708Y-125679054D01*
X31630082Y-125562195D01*
X31643551Y-125371721D01*
X31721319Y-125281507D01*
X31919428Y-125254190D01*
X32094716Y-125252439D01*
X32380427Y-125261418D01*
G37*
G04 #@! TO.C,K_31*
X202025000Y-112240000D02*
X188025000Y-112240000D01*
X202025000Y-98240000D02*
X202025000Y-112240000D01*
X188025000Y-98240000D02*
X202025000Y-98240000D01*
X188025000Y-98240000D02*
X188025000Y-112240000D01*
G04 #@! TO.C,K_29*
X163925000Y-112240000D02*
X149925000Y-112240000D01*
X163925000Y-98240000D02*
X163925000Y-112240000D01*
X149925000Y-98240000D02*
X163925000Y-98240000D01*
X149925000Y-98240000D02*
X149925000Y-112240000D01*
G04 #@! TO.C,K_8*
X211550000Y-74140000D02*
X197550000Y-74140000D01*
X211550000Y-60140000D02*
X211550000Y-74140000D01*
X197550000Y-60140000D02*
X211550000Y-60140000D01*
X197550000Y-60140000D02*
X197550000Y-74140000D01*
G04 #@! TO.C,K_36*
X59150000Y-131290000D02*
X45150000Y-131290000D01*
X59150000Y-117290000D02*
X59150000Y-131290000D01*
X45150000Y-117290000D02*
X59150000Y-117290000D01*
X45150000Y-117290000D02*
X45150000Y-131290000D01*
G04 #@! TO.C,K_39*
X116300000Y-131290000D02*
X102300000Y-131290000D01*
X116300000Y-117290000D02*
X116300000Y-131290000D01*
X102300000Y-117290000D02*
X116300000Y-117290000D01*
X102300000Y-117290000D02*
X102300000Y-131290000D01*
G04 #@! TO.C,K_30*
X182975000Y-112240000D02*
X168975000Y-112240000D01*
X182975000Y-98240000D02*
X182975000Y-112240000D01*
X168975000Y-98240000D02*
X182975000Y-98240000D01*
X168975000Y-98240000D02*
X168975000Y-112240000D01*
G04 #@! TO.C,K_48*
X278225000Y-131290000D02*
X264225000Y-131290000D01*
X278225000Y-117290000D02*
X278225000Y-131290000D01*
X264225000Y-117290000D02*
X278225000Y-117290000D01*
X264225000Y-117290000D02*
X264225000Y-131290000D01*
G04 #@! TO.C,K_12*
X47531250Y-79190000D02*
X47531250Y-93190000D01*
X47531250Y-79190000D02*
X61531250Y-79190000D01*
X61531250Y-79190000D02*
X61531250Y-93190000D01*
X61531250Y-93190000D02*
X47531250Y-93190000D01*
G04 #@! TO.C,K_44*
X185643750Y-117290000D02*
X185643750Y-131290000D01*
X185643750Y-117290000D02*
X199643750Y-117290000D01*
X199643750Y-117290000D02*
X199643750Y-131290000D01*
X199643750Y-131290000D02*
X185643750Y-131290000D01*
G04 #@! TO.C,K_46*
X240125000Y-131290000D02*
X226125000Y-131290000D01*
X240125000Y-117290000D02*
X240125000Y-131290000D01*
X226125000Y-117290000D02*
X240125000Y-117290000D01*
X226125000Y-117290000D02*
X226125000Y-131290000D01*
G04 #@! TO.C,K_0*
X59150000Y-74140000D02*
X45150000Y-74140000D01*
X59150000Y-60140000D02*
X59150000Y-74140000D01*
X45150000Y-60140000D02*
X59150000Y-60140000D01*
X45150000Y-60140000D02*
X45150000Y-74140000D01*
G04 #@! TO.C,K_42*
X154687500Y-117290000D02*
X168687500Y-117290000D01*
X168687500Y-117290000D02*
X168687500Y-131290000D01*
X154687500Y-117290000D02*
X154687500Y-131290000D01*
X168687500Y-131290000D02*
X154687500Y-131290000D01*
G04 #@! TO.C,K_6*
X173450000Y-74140000D02*
X159450000Y-74140000D01*
X173450000Y-60140000D02*
X173450000Y-74140000D01*
X159450000Y-60140000D02*
X173450000Y-60140000D01*
X159450000Y-60140000D02*
X159450000Y-74140000D01*
G04 #@! TO.C,K_24*
X63912500Y-98240000D02*
X63912500Y-112240000D01*
X63912500Y-112240000D02*
X49912500Y-112240000D01*
X49912500Y-98240000D02*
X49912500Y-112240000D01*
X49912500Y-98240000D02*
X63912500Y-98240000D01*
G04 #@! TO.C,K_23*
X261843750Y-79190000D02*
X261843750Y-93190000D01*
X261843750Y-79190000D02*
X275843750Y-79190000D01*
X275843750Y-79190000D02*
X275843750Y-93190000D01*
X275843750Y-93190000D02*
X261843750Y-93190000D01*
G04 #@! TO.C,K_2*
X97250000Y-74140000D02*
X83250000Y-74140000D01*
X97250000Y-60140000D02*
X97250000Y-74140000D01*
X83250000Y-60140000D02*
X97250000Y-60140000D01*
X83250000Y-60140000D02*
X83250000Y-74140000D01*
G04 #@! TO.C,K_13*
X82962500Y-93190000D02*
X68962500Y-93190000D01*
X82962500Y-79190000D02*
X82962500Y-93190000D01*
X68962500Y-79190000D02*
X82962500Y-79190000D01*
X68962500Y-79190000D02*
X68962500Y-93190000D01*
G04 #@! TO.C,K_7*
X192500000Y-74140000D02*
X178500000Y-74140000D01*
X192500000Y-60140000D02*
X192500000Y-74140000D01*
X178500000Y-60140000D02*
X192500000Y-60140000D01*
X178500000Y-60140000D02*
X178500000Y-74140000D01*
G04 #@! TO.C,K_28*
X144875000Y-112240000D02*
X130875000Y-112240000D01*
X144875000Y-98240000D02*
X144875000Y-112240000D01*
X130875000Y-98240000D02*
X144875000Y-98240000D01*
X130875000Y-98240000D02*
X130875000Y-112240000D01*
G04 #@! TO.C,K_19*
X197262500Y-93190000D02*
X183262500Y-93190000D01*
X197262500Y-79190000D02*
X197262500Y-93190000D01*
X183262500Y-79190000D02*
X197262500Y-79190000D01*
X183262500Y-79190000D02*
X183262500Y-93190000D01*
G04 #@! TO.C,K_40*
X123731250Y-117290000D02*
X123731250Y-131290000D01*
X123731250Y-117290000D02*
X137731250Y-117290000D01*
X137731250Y-117290000D02*
X137731250Y-131290000D01*
X137731250Y-131290000D02*
X123731250Y-131290000D01*
G04 #@! TO.C,K_34*
X259175000Y-112240000D02*
X245175000Y-112240000D01*
X259175000Y-98240000D02*
X259175000Y-112240000D01*
X245175000Y-98240000D02*
X259175000Y-98240000D01*
X245175000Y-98240000D02*
X245175000Y-112240000D01*
G04 #@! TO.C,K_45*
X221075000Y-131290000D02*
X207075000Y-131290000D01*
X221075000Y-117290000D02*
X221075000Y-131290000D01*
X207075000Y-117290000D02*
X221075000Y-117290000D01*
X207075000Y-117290000D02*
X207075000Y-131290000D01*
G04 #@! TO.C,K_38*
X97250000Y-131290000D02*
X83250000Y-131290000D01*
X97250000Y-117290000D02*
X97250000Y-131290000D01*
X83250000Y-117290000D02*
X97250000Y-117290000D01*
X83250000Y-117290000D02*
X83250000Y-131290000D01*
G04 #@! TO.C,K_5*
X154400000Y-74140000D02*
X140400000Y-74140000D01*
X154400000Y-60140000D02*
X154400000Y-74140000D01*
X140400000Y-60140000D02*
X154400000Y-60140000D01*
X140400000Y-60140000D02*
X140400000Y-74140000D01*
G04 #@! TO.C,K_22*
X254412500Y-93190000D02*
X240412500Y-93190000D01*
X254412500Y-79190000D02*
X254412500Y-93190000D01*
X240412500Y-79190000D02*
X254412500Y-79190000D01*
X240412500Y-79190000D02*
X240412500Y-93190000D01*
G04 #@! TO.C,K_10*
X249650000Y-74140000D02*
X235650000Y-74140000D01*
X249650000Y-60140000D02*
X249650000Y-74140000D01*
X235650000Y-60140000D02*
X249650000Y-60140000D01*
X235650000Y-60140000D02*
X235650000Y-74140000D01*
G04 #@! TO.C,K_14*
X102012500Y-93190000D02*
X88012500Y-93190000D01*
X102012500Y-79190000D02*
X102012500Y-93190000D01*
X88012500Y-79190000D02*
X102012500Y-79190000D01*
X88012500Y-79190000D02*
X88012500Y-93190000D01*
G04 #@! TO.C,K_4*
X135350000Y-74140000D02*
X121350000Y-74140000D01*
X135350000Y-60140000D02*
X135350000Y-74140000D01*
X121350000Y-60140000D02*
X135350000Y-60140000D01*
X121350000Y-60140000D02*
X121350000Y-74140000D01*
G04 #@! TD*
M02*
