G04 #@! TF.GenerationSoftware,KiCad,Pcbnew,(6.0.0)*
G04 #@! TF.CreationDate,2022-06-02T13:00:09+05:00*
G04 #@! TF.ProjectId,keyboard,6b657962-6f61-4726-942e-6b696361645f,rev?*
G04 #@! TF.SameCoordinates,Original*
G04 #@! TF.FileFunction,Profile,NP*
%FSLAX46Y46*%
G04 Gerber Fmt 4.6, Leading zero omitted, Abs format (unit mm)*
G04 Created by KiCad (PCBNEW (6.0.0)) date 2022-06-02 13:00:09*
%MOMM*%
%LPD*%
G01*
G04 APERTURE LIST*
G04 #@! TA.AperFunction,Profile*
%ADD10C,0.254000*%
G04 #@! TD*
G04 APERTURE END LIST*
D10*
X258260086Y-133810000D02*
X165000000Y-133810000D01*
X252000000Y-57500000D02*
G75*
G03*
X260000000Y-57500000I4000000J1261196D01*
G01*
X173000000Y-57500000D02*
G75*
G03*
X180000000Y-57500000I3500000J1103546D01*
G01*
X14000000Y-129810000D02*
G75*
G03*
X18000000Y-133810000I4000000J0D01*
G01*
X281000000Y-61500000D02*
X281000000Y-129810000D01*
X277000000Y-133810000D02*
G75*
G03*
X281000000Y-129810000I0J4000000D01*
G01*
X18000000Y-57500000D02*
X77000000Y-57500000D01*
X77000000Y-57500000D02*
G75*
G03*
X84000000Y-57500000I3500000J1103546D01*
G01*
X165000000Y-133810000D02*
G75*
G03*
X158000000Y-133810000I-3500000J-1103546D01*
G01*
X281000000Y-61500000D02*
G75*
G03*
X277000000Y-57500000I-4000000J0D01*
G01*
X158000000Y-133810000D02*
X46000000Y-133810000D01*
X180000000Y-57500000D02*
X252000000Y-57500000D01*
X18000000Y-57500000D02*
G75*
G03*
X14000000Y-61500000I0J-4000000D01*
G01*
X46000000Y-133810000D02*
G75*
G03*
X39000000Y-133810000I-3500000J-1103546D01*
G01*
X277000000Y-133810000D02*
X265260086Y-133810000D01*
X260000000Y-57500000D02*
X277000000Y-57500000D01*
X14000000Y-129810000D02*
X14000000Y-61500000D01*
X265260086Y-133810000D02*
G75*
G03*
X258260086Y-133810000I-3500000J-1103546D01*
G01*
X84000000Y-57500000D02*
X173000000Y-57500000D01*
X18000000Y-133810000D02*
X39000000Y-133810000D01*
M02*
