G04 #@! TF.GenerationSoftware,KiCad,Pcbnew,(6.0.0)*
G04 #@! TF.CreationDate,2022-06-02T13:00:09+05:00*
G04 #@! TF.ProjectId,keyboard,6b657962-6f61-4726-942e-6b696361645f,rev?*
G04 #@! TF.SameCoordinates,Original*
G04 #@! TF.FileFunction,Paste,Bot*
G04 #@! TF.FilePolarity,Positive*
%FSLAX46Y46*%
G04 Gerber Fmt 4.6, Leading zero omitted, Abs format (unit mm)*
G04 Created by KiCad (PCBNEW (6.0.0)) date 2022-06-02 13:00:09*
%MOMM*%
%LPD*%
G01*
G04 APERTURE LIST*
G04 Aperture macros list*
%AMRoundRect*
0 Rectangle with rounded corners*
0 $1 Rounding radius*
0 $2 $3 $4 $5 $6 $7 $8 $9 X,Y pos of 4 corners*
0 Add a 4 corners polygon primitive as box body*
4,1,4,$2,$3,$4,$5,$6,$7,$8,$9,$2,$3,0*
0 Add four circle primitives for the rounded corners*
1,1,$1+$1,$2,$3*
1,1,$1+$1,$4,$5*
1,1,$1+$1,$6,$7*
1,1,$1+$1,$8,$9*
0 Add four rect primitives between the rounded corners*
20,1,$1+$1,$2,$3,$4,$5,0*
20,1,$1+$1,$4,$5,$6,$7,0*
20,1,$1+$1,$6,$7,$8,$9,0*
20,1,$1+$1,$8,$9,$2,$3,0*%
G04 Aperture macros list end*
%ADD10R,0.300000X0.950000*%
%ADD11R,0.950000X0.300000*%
%ADD12R,5.400000X5.400000*%
%ADD13R,1.200000X0.900000*%
%ADD14R,4.500000X2.540000*%
%ADD15R,4.750000X2.540000*%
%ADD16R,1.800000X1.100000*%
%ADD17R,0.600000X1.450000*%
%ADD18R,0.300000X1.450000*%
%ADD19RoundRect,0.225000X0.225000X0.250000X-0.225000X0.250000X-0.225000X-0.250000X0.225000X-0.250000X0*%
%ADD20RoundRect,0.225000X-0.225000X-0.250000X0.225000X-0.250000X0.225000X0.250000X-0.225000X0.250000X0*%
%ADD21RoundRect,0.200000X0.275000X-0.200000X0.275000X0.200000X-0.275000X0.200000X-0.275000X-0.200000X0*%
%ADD22RoundRect,0.200000X0.200000X0.275000X-0.200000X0.275000X-0.200000X-0.275000X0.200000X-0.275000X0*%
%ADD23RoundRect,0.200000X-0.200000X-0.275000X0.200000X-0.275000X0.200000X0.275000X-0.200000X0.275000X0*%
%ADD24RoundRect,0.218750X-0.218750X-0.256250X0.218750X-0.256250X0.218750X0.256250X-0.218750X0.256250X0*%
%ADD25RoundRect,0.225000X0.250000X-0.225000X0.250000X0.225000X-0.250000X0.225000X-0.250000X-0.225000X0*%
%ADD26RoundRect,0.200000X-0.275000X0.200000X-0.275000X-0.200000X0.275000X-0.200000X0.275000X0.200000X0*%
%ADD27RoundRect,0.225000X-0.250000X0.225000X-0.250000X-0.225000X0.250000X-0.225000X0.250000X0.225000X0*%
%ADD28R,0.700000X1.000000*%
%ADD29R,0.700000X0.600000*%
%ADD30R,1.400000X1.200000*%
G04 APERTURE END LIST*
D10*
G04 #@! TO.C,IC1*
X25750000Y-76600000D03*
X26250000Y-76600000D03*
X26750000Y-76600000D03*
X27250000Y-76600000D03*
X27750000Y-76600000D03*
X28250000Y-76600000D03*
X28750000Y-76600000D03*
X29250000Y-76600000D03*
X29750000Y-76600000D03*
X30250000Y-76600000D03*
X30750000Y-76600000D03*
D11*
X31650000Y-77500000D03*
X31650000Y-78000000D03*
X31650000Y-78500000D03*
X31650000Y-79000000D03*
X31650000Y-79500000D03*
X31650000Y-80000000D03*
X31650000Y-80500000D03*
X31650000Y-81000000D03*
X31650000Y-81500000D03*
X31650000Y-82000000D03*
X31650000Y-82500000D03*
D10*
X30750000Y-83400000D03*
X30250000Y-83400000D03*
X29750000Y-83400000D03*
X29250000Y-83400000D03*
X28750000Y-83400000D03*
X28250000Y-83400000D03*
X27750000Y-83400000D03*
X27250000Y-83400000D03*
X26750000Y-83400000D03*
X26250000Y-83400000D03*
X25750000Y-83400000D03*
D11*
X24850000Y-82500000D03*
X24850000Y-82000000D03*
X24850000Y-81500000D03*
X24850000Y-81000000D03*
X24850000Y-80500000D03*
X24850000Y-80000000D03*
X24850000Y-79500000D03*
X24850000Y-79000000D03*
X24850000Y-78500000D03*
X24850000Y-78000000D03*
X24850000Y-77500000D03*
D12*
X28250000Y-80000000D03*
G04 #@! TD*
D13*
G04 #@! TO.C,D_49*
X37740000Y-116980000D03*
X37740000Y-120280000D03*
G04 #@! TD*
D14*
G04 #@! TO.C,K_18*
X165212500Y-83650000D03*
D15*
X175962500Y-81110000D03*
G04 #@! TD*
D14*
G04 #@! TO.C,K_35*
X265225000Y-102700000D03*
D15*
X275975000Y-100160000D03*
G04 #@! TD*
D14*
G04 #@! TO.C,K_17*
X146162500Y-83650000D03*
D15*
X156912500Y-81110000D03*
G04 #@! TD*
D14*
G04 #@! TO.C,K_21*
X222362500Y-83650000D03*
D15*
X233112500Y-81110000D03*
G04 #@! TD*
D14*
G04 #@! TO.C,K_27*
X112825000Y-102700000D03*
D15*
X123575000Y-100160000D03*
G04 #@! TD*
D14*
G04 #@! TO.C,K_47*
X246175000Y-121750000D03*
D15*
X256925000Y-119210000D03*
G04 #@! TD*
D14*
G04 #@! TO.C,K_20*
X203312500Y-83650000D03*
D15*
X214062500Y-81110000D03*
G04 #@! TD*
D14*
G04 #@! TO.C,K_11*
X260462500Y-64600000D03*
D15*
X271212500Y-62060000D03*
G04 #@! TD*
D14*
G04 #@! TO.C,K_41*
X146256250Y-126730000D03*
D15*
X135506250Y-129270000D03*
G04 #@! TD*
D14*
G04 #@! TO.C,K_43*
X189118750Y-126730000D03*
D15*
X178368750Y-129270000D03*
G04 #@! TD*
D14*
G04 #@! TO.C,K_32*
X208075000Y-102700000D03*
D15*
X218825000Y-100160000D03*
G04 #@! TD*
D14*
G04 #@! TO.C,K_25*
X74725000Y-102700000D03*
D15*
X85475000Y-100160000D03*
G04 #@! TD*
D14*
G04 #@! TO.C,K_1*
X65200000Y-64600000D03*
D15*
X75950000Y-62060000D03*
G04 #@! TD*
D14*
G04 #@! TO.C,K_15*
X108062500Y-83650000D03*
D15*
X118812500Y-81110000D03*
G04 #@! TD*
D14*
G04 #@! TO.C,K_33*
X227125000Y-102700000D03*
D15*
X237875000Y-100160000D03*
G04 #@! TD*
D14*
G04 #@! TO.C,K_37*
X65200000Y-121750000D03*
D15*
X75950000Y-119210000D03*
G04 #@! TD*
D14*
G04 #@! TO.C,K_26*
X93775000Y-102700000D03*
D15*
X104525000Y-100160000D03*
G04 #@! TD*
D14*
G04 #@! TO.C,K_3*
X103300000Y-64600000D03*
D15*
X114050000Y-62060000D03*
G04 #@! TD*
D14*
G04 #@! TO.C,K_9*
X217600000Y-64600000D03*
D15*
X228350000Y-62060000D03*
G04 #@! TD*
D14*
G04 #@! TO.C,K_16*
X127112500Y-83650000D03*
D15*
X137862500Y-81110000D03*
G04 #@! TD*
D14*
G04 #@! TO.C,K_31*
X189025000Y-102700000D03*
D15*
X199775000Y-100160000D03*
G04 #@! TD*
D14*
G04 #@! TO.C,K_29*
X150925000Y-102700000D03*
D15*
X161675000Y-100160000D03*
G04 #@! TD*
D14*
G04 #@! TO.C,K_8*
X198550000Y-64600000D03*
D15*
X209300000Y-62060000D03*
G04 #@! TD*
D14*
G04 #@! TO.C,K_36*
X46150000Y-121750000D03*
D15*
X56900000Y-119210000D03*
G04 #@! TD*
D14*
G04 #@! TO.C,K_39*
X103300000Y-121750000D03*
D15*
X114050000Y-119210000D03*
G04 #@! TD*
D14*
G04 #@! TO.C,K_30*
X169975000Y-102700000D03*
D15*
X180725000Y-100160000D03*
G04 #@! TD*
D14*
G04 #@! TO.C,K_48*
X265225000Y-121750000D03*
D15*
X275975000Y-119210000D03*
G04 #@! TD*
D14*
G04 #@! TO.C,K_12*
X48556250Y-83700000D03*
D15*
X59306250Y-81160000D03*
G04 #@! TD*
D14*
G04 #@! TO.C,K_44*
X186668750Y-121800000D03*
D15*
X197418750Y-119260000D03*
G04 #@! TD*
D14*
G04 #@! TO.C,K_46*
X227125000Y-121750000D03*
D15*
X237875000Y-119210000D03*
G04 #@! TD*
D14*
G04 #@! TO.C,K_0*
X46150000Y-64600000D03*
D15*
X56900000Y-62060000D03*
G04 #@! TD*
D14*
G04 #@! TO.C,K_42*
X155687500Y-121750000D03*
D15*
X166437500Y-119210000D03*
G04 #@! TD*
D14*
G04 #@! TO.C,K_6*
X160450000Y-64600000D03*
D15*
X171200000Y-62060000D03*
G04 #@! TD*
D14*
G04 #@! TO.C,K_24*
X50912500Y-102700000D03*
D15*
X61662500Y-100160000D03*
G04 #@! TD*
D14*
G04 #@! TO.C,K_23*
X262868750Y-83700000D03*
D15*
X273618750Y-81160000D03*
G04 #@! TD*
D14*
G04 #@! TO.C,K_2*
X84250000Y-64600000D03*
D15*
X95000000Y-62060000D03*
G04 #@! TD*
D14*
G04 #@! TO.C,K_13*
X69962500Y-83650000D03*
D15*
X80712500Y-81110000D03*
G04 #@! TD*
D14*
G04 #@! TO.C,K_7*
X179500000Y-64600000D03*
D15*
X190250000Y-62060000D03*
G04 #@! TD*
D14*
G04 #@! TO.C,K_28*
X131875000Y-102700000D03*
D15*
X142625000Y-100160000D03*
G04 #@! TD*
D14*
G04 #@! TO.C,K_19*
X184262500Y-83650000D03*
D15*
X195012500Y-81110000D03*
G04 #@! TD*
D14*
G04 #@! TO.C,K_40*
X124756250Y-121800000D03*
D15*
X135506250Y-119260000D03*
G04 #@! TD*
D14*
G04 #@! TO.C,K_34*
X246175000Y-102700000D03*
D15*
X256925000Y-100160000D03*
G04 #@! TD*
D14*
G04 #@! TO.C,K_45*
X208075000Y-121750000D03*
D15*
X218825000Y-119210000D03*
G04 #@! TD*
D14*
G04 #@! TO.C,K_38*
X84250000Y-121750000D03*
D15*
X95000000Y-119210000D03*
G04 #@! TD*
D14*
G04 #@! TO.C,K_5*
X141400000Y-64600000D03*
D15*
X152150000Y-62060000D03*
G04 #@! TD*
D14*
G04 #@! TO.C,K_22*
X241412500Y-83650000D03*
D15*
X252162500Y-81110000D03*
G04 #@! TD*
D14*
G04 #@! TO.C,K_10*
X236650000Y-64600000D03*
D15*
X247400000Y-62060000D03*
G04 #@! TD*
D14*
G04 #@! TO.C,K_14*
X89012500Y-83650000D03*
D15*
X99762500Y-81110000D03*
G04 #@! TD*
D14*
G04 #@! TO.C,K_4*
X122350000Y-64600000D03*
D15*
X133100000Y-62060000D03*
G04 #@! TD*
D13*
G04 #@! TO.C,D_4*
X136875000Y-69290000D03*
X136875000Y-65990000D03*
G04 #@! TD*
G04 #@! TO.C,D_44*
X206770000Y-128760000D03*
X206770000Y-125460000D03*
G04 #@! TD*
D16*
G04 #@! TO.C,SW1*
X41540000Y-72030000D03*
X35340000Y-72030000D03*
X35340000Y-68330000D03*
X41540000Y-68330000D03*
G04 #@! TD*
D13*
G04 #@! TO.C,D_27*
X127350000Y-107390000D03*
X127350000Y-104090000D03*
G04 #@! TD*
G04 #@! TO.C,D_18*
X179737500Y-88340000D03*
X179737500Y-85040000D03*
G04 #@! TD*
D17*
G04 #@! TO.C,J2*
X25000000Y-63995000D03*
X25800000Y-63995000D03*
D18*
X27000000Y-63995000D03*
X28000000Y-63995000D03*
X28500000Y-63995000D03*
X29500000Y-63995000D03*
D17*
X30700000Y-63995000D03*
X31500000Y-63995000D03*
X31500000Y-63995000D03*
X30700000Y-63995000D03*
D18*
X30000000Y-63995000D03*
X29000000Y-63995000D03*
X27500000Y-63995000D03*
X26500000Y-63995000D03*
D17*
X25800000Y-63995000D03*
X25000000Y-63995000D03*
G04 #@! TD*
D19*
G04 #@! TO.C,C10*
X27845000Y-107670000D03*
X26295000Y-107670000D03*
G04 #@! TD*
D20*
G04 #@! TO.C,C12*
X30675000Y-99470000D03*
X32225000Y-99470000D03*
G04 #@! TD*
D13*
G04 #@! TO.C,D_10*
X251175000Y-69290000D03*
X251175000Y-65990000D03*
G04 #@! TD*
G04 #@! TO.C,D_12*
X65437500Y-88340000D03*
X65437500Y-85040000D03*
G04 #@! TD*
G04 #@! TO.C,D_24*
X67470000Y-107390000D03*
X67470000Y-104090000D03*
G04 #@! TD*
G04 #@! TO.C,D_45*
X222600000Y-126440000D03*
X222600000Y-123140000D03*
G04 #@! TD*
D21*
G04 #@! TO.C,R4*
X25030000Y-86500000D03*
X25030000Y-84850000D03*
G04 #@! TD*
D13*
G04 #@! TO.C,D_22*
X255937500Y-88340000D03*
X255937500Y-85040000D03*
G04 #@! TD*
D19*
G04 #@! TO.C,C3*
X22925000Y-75920000D03*
X21375000Y-75920000D03*
G04 #@! TD*
D22*
G04 #@! TO.C,R10*
X26135000Y-99430000D03*
X24485000Y-99430000D03*
G04 #@! TD*
D21*
G04 #@! TO.C,R6*
X27750000Y-73175000D03*
X27750000Y-71525000D03*
G04 #@! TD*
D20*
G04 #@! TO.C,C5*
X30830000Y-84910000D03*
X32380000Y-84910000D03*
G04 #@! TD*
D23*
G04 #@! TO.C,R8*
X26295000Y-109230000D03*
X27945000Y-109230000D03*
G04 #@! TD*
D19*
G04 #@! TO.C,C4*
X23375000Y-83360000D03*
X21825000Y-83360000D03*
G04 #@! TD*
D13*
G04 #@! TO.C,D_9*
X232125000Y-69290000D03*
X232125000Y-65990000D03*
G04 #@! TD*
D23*
G04 #@! TO.C,R11*
X27585000Y-99440000D03*
X29235000Y-99440000D03*
G04 #@! TD*
D24*
G04 #@! TO.C,Dled1*
X20212500Y-59870000D03*
X21787500Y-59870000D03*
G04 #@! TD*
D13*
G04 #@! TO.C,D_29*
X165450000Y-107390000D03*
X165450000Y-104090000D03*
G04 #@! TD*
G04 #@! TO.C,D_31*
X203550000Y-107390000D03*
X203550000Y-104090000D03*
G04 #@! TD*
G04 #@! TO.C,D_8*
X213075000Y-69290000D03*
X213075000Y-65990000D03*
G04 #@! TD*
G04 #@! TO.C,D_0*
X60675000Y-69290000D03*
X60675000Y-65990000D03*
G04 #@! TD*
G04 #@! TO.C,D_32*
X222600000Y-107390000D03*
X222600000Y-104090000D03*
G04 #@! TD*
G04 #@! TO.C,D_34*
X260700000Y-107390000D03*
X260700000Y-104090000D03*
G04 #@! TD*
D19*
G04 #@! TO.C,C1*
X39210000Y-78220000D03*
X37660000Y-78220000D03*
G04 #@! TD*
D13*
G04 #@! TO.C,D_26*
X108300000Y-107390000D03*
X108300000Y-104090000D03*
G04 #@! TD*
D19*
G04 #@! TO.C,C11*
X31665000Y-107670000D03*
X30115000Y-107670000D03*
G04 #@! TD*
D13*
G04 #@! TO.C,D_14*
X103537500Y-88340000D03*
X103537500Y-85040000D03*
G04 #@! TD*
G04 #@! TO.C,D_30*
X184500000Y-107390000D03*
X184500000Y-104090000D03*
G04 #@! TD*
G04 #@! TO.C,D_5*
X155925000Y-69290000D03*
X155925000Y-65990000D03*
G04 #@! TD*
G04 #@! TO.C,D_33*
X241650000Y-107390000D03*
X241650000Y-104090000D03*
G04 #@! TD*
G04 #@! TO.C,D_48*
X278670000Y-126440000D03*
X278670000Y-123140000D03*
G04 #@! TD*
D25*
G04 #@! TO.C,C6*
X31220000Y-73125000D03*
X31220000Y-71575000D03*
G04 #@! TD*
D26*
G04 #@! TO.C,R1*
X21820000Y-62955000D03*
X21820000Y-64605000D03*
G04 #@! TD*
D27*
G04 #@! TO.C,C2*
X40750000Y-79955000D03*
X40750000Y-81505000D03*
G04 #@! TD*
D13*
G04 #@! TO.C,D_28*
X146400000Y-107390000D03*
X146400000Y-104090000D03*
G04 #@! TD*
D26*
G04 #@! TO.C,R3*
X34520000Y-62945000D03*
X34520000Y-64595000D03*
G04 #@! TD*
D13*
G04 #@! TO.C,D_3*
X117825000Y-69290000D03*
X117825000Y-65990000D03*
G04 #@! TD*
D22*
G04 #@! TO.C,R7*
X21825000Y-61440000D03*
X20175000Y-61440000D03*
G04 #@! TD*
D13*
G04 #@! TO.C,D_20*
X217837500Y-88340000D03*
X217837500Y-85040000D03*
G04 #@! TD*
D28*
G04 #@! TO.C,ESD1*
X29220000Y-67295000D03*
D29*
X29220000Y-68995000D03*
X27220000Y-68995000D03*
X27220000Y-67095000D03*
G04 #@! TD*
D13*
G04 #@! TO.C,D_47*
X260700000Y-126440000D03*
X260700000Y-123140000D03*
G04 #@! TD*
G04 #@! TO.C,D_37*
X79725000Y-126440000D03*
X79725000Y-123140000D03*
G04 #@! TD*
G04 #@! TO.C,D_23*
X277630000Y-88350000D03*
X277630000Y-85050000D03*
G04 #@! TD*
G04 #@! TO.C,D_39*
X115350000Y-129820000D03*
X115350000Y-126520000D03*
G04 #@! TD*
G04 #@! TO.C,D_21*
X236887500Y-88340000D03*
X236887500Y-85040000D03*
G04 #@! TD*
G04 #@! TO.C,D_40*
X117780000Y-129810000D03*
X117780000Y-126510000D03*
G04 #@! TD*
G04 #@! TO.C,D_42*
X168940000Y-126440000D03*
X168940000Y-123140000D03*
G04 #@! TD*
G04 #@! TO.C,D_46*
X241650000Y-126440000D03*
X241650000Y-123140000D03*
G04 #@! TD*
G04 #@! TO.C,D_11*
X275620000Y-69280000D03*
X275620000Y-65980000D03*
G04 #@! TD*
D25*
G04 #@! TO.C,C9*
X29700000Y-73125000D03*
X29700000Y-71575000D03*
G04 #@! TD*
D19*
G04 #@! TO.C,C8*
X22925000Y-78000000D03*
X21375000Y-78000000D03*
G04 #@! TD*
D13*
G04 #@! TO.C,D_15*
X122587500Y-88340000D03*
X122587500Y-85040000D03*
G04 #@! TD*
G04 #@! TO.C,D_16*
X141637500Y-88340000D03*
X141637500Y-85040000D03*
G04 #@! TD*
G04 #@! TO.C,D_25*
X89250000Y-107390000D03*
X89250000Y-104090000D03*
G04 #@! TD*
G04 #@! TO.C,D_7*
X194025000Y-69290000D03*
X194025000Y-65990000D03*
G04 #@! TD*
D20*
G04 #@! TO.C,C7*
X33580000Y-78200000D03*
X35130000Y-78200000D03*
G04 #@! TD*
D21*
G04 #@! TO.C,R5*
X26230000Y-73175000D03*
X26230000Y-71525000D03*
G04 #@! TD*
D13*
G04 #@! TO.C,D_38*
X98775000Y-126440000D03*
X98775000Y-123140000D03*
G04 #@! TD*
G04 #@! TO.C,D_43*
X204280000Y-128770000D03*
X204280000Y-125470000D03*
G04 #@! TD*
D23*
G04 #@! TO.C,R9*
X30065000Y-109220000D03*
X31715000Y-109220000D03*
G04 #@! TD*
D13*
G04 #@! TO.C,D_35*
X278670000Y-107400000D03*
X278670000Y-104100000D03*
G04 #@! TD*
G04 #@! TO.C,D_1*
X79725000Y-69290000D03*
X79725000Y-65990000D03*
G04 #@! TD*
G04 #@! TO.C,D_19*
X198787500Y-88340000D03*
X198787500Y-85040000D03*
G04 #@! TD*
G04 #@! TO.C,D_36*
X60675000Y-126440000D03*
X60675000Y-123140000D03*
G04 #@! TD*
G04 #@! TO.C,D_17*
X160687500Y-88340000D03*
X160687500Y-85040000D03*
G04 #@! TD*
G04 #@! TO.C,D_41*
X120210000Y-129800000D03*
X120210000Y-126500000D03*
G04 #@! TD*
G04 #@! TO.C,D_6*
X174975000Y-69290000D03*
X174975000Y-65990000D03*
G04 #@! TD*
D30*
G04 #@! TO.C,Y1*
X38950000Y-81600000D03*
X36750000Y-81600000D03*
X36750000Y-79900000D03*
X38950000Y-79900000D03*
G04 #@! TD*
D13*
G04 #@! TO.C,D_13*
X84487500Y-88340000D03*
X84487500Y-85040000D03*
G04 #@! TD*
D23*
G04 #@! TO.C,R2*
X33530000Y-76680000D03*
X35180000Y-76680000D03*
G04 #@! TD*
D13*
G04 #@! TO.C,D_2*
X98775000Y-69290000D03*
X98775000Y-65990000D03*
G04 #@! TD*
M02*
