G04 #@! TF.GenerationSoftware,KiCad,Pcbnew,(6.0.0)*
G04 #@! TF.CreationDate,2022-06-02T13:00:09+05:00*
G04 #@! TF.ProjectId,keyboard,6b657962-6f61-4726-942e-6b696361645f,rev?*
G04 #@! TF.SameCoordinates,Original*
G04 #@! TF.FileFunction,Soldermask,Bot*
G04 #@! TF.FilePolarity,Negative*
%FSLAX46Y46*%
G04 Gerber Fmt 4.6, Leading zero omitted, Abs format (unit mm)*
G04 Created by KiCad (PCBNEW (6.0.0)) date 2022-06-02 13:00:09*
%MOMM*%
%LPD*%
G01*
G04 APERTURE LIST*
G04 Aperture macros list*
%AMRoundRect*
0 Rectangle with rounded corners*
0 $1 Rounding radius*
0 $2 $3 $4 $5 $6 $7 $8 $9 X,Y pos of 4 corners*
0 Add a 4 corners polygon primitive as box body*
4,1,4,$2,$3,$4,$5,$6,$7,$8,$9,$2,$3,0*
0 Add four circle primitives for the rounded corners*
1,1,$1+$1,$2,$3*
1,1,$1+$1,$4,$5*
1,1,$1+$1,$6,$7*
1,1,$1+$1,$8,$9*
0 Add four rect primitives between the rounded corners*
20,1,$1+$1,$2,$3,$4,$5,0*
20,1,$1+$1,$4,$5,$6,$7,0*
20,1,$1+$1,$6,$7,$8,$9,0*
20,1,$1+$1,$8,$9,$2,$3,0*%
G04 Aperture macros list end*
%ADD10R,0.300000X0.950000*%
%ADD11R,0.950000X0.300000*%
%ADD12R,5.400000X5.400000*%
%ADD13R,1.200000X0.900000*%
%ADD14C,4.000000*%
%ADD15C,1.750000*%
%ADD16C,3.650000*%
%ADD17R,4.500000X2.540000*%
%ADD18R,4.750000X2.540000*%
%ADD19C,3.987800*%
%ADD20C,3.048000*%
%ADD21O,1.600000X2.000000*%
%ADD22R,2.000000X2.000000*%
%ADD23C,2.000000*%
%ADD24R,2.000000X3.200000*%
%ADD25R,1.800000X1.100000*%
%ADD26C,0.650000*%
%ADD27R,0.600000X1.450000*%
%ADD28R,0.300000X1.450000*%
%ADD29O,1.000000X1.600000*%
%ADD30O,1.000000X2.100000*%
%ADD31RoundRect,0.225000X0.225000X0.250000X-0.225000X0.250000X-0.225000X-0.250000X0.225000X-0.250000X0*%
%ADD32RoundRect,0.225000X-0.225000X-0.250000X0.225000X-0.250000X0.225000X0.250000X-0.225000X0.250000X0*%
%ADD33RoundRect,0.200000X0.275000X-0.200000X0.275000X0.200000X-0.275000X0.200000X-0.275000X-0.200000X0*%
%ADD34RoundRect,0.200000X0.200000X0.275000X-0.200000X0.275000X-0.200000X-0.275000X0.200000X-0.275000X0*%
%ADD35O,1.700000X1.700000*%
%ADD36R,1.700000X1.700000*%
%ADD37RoundRect,0.200000X-0.200000X-0.275000X0.200000X-0.275000X0.200000X0.275000X-0.200000X0.275000X0*%
%ADD38RoundRect,0.218750X-0.218750X-0.256250X0.218750X-0.256250X0.218750X0.256250X-0.218750X0.256250X0*%
%ADD39RoundRect,0.225000X0.250000X-0.225000X0.250000X0.225000X-0.250000X0.225000X-0.250000X-0.225000X0*%
%ADD40RoundRect,0.200000X-0.275000X0.200000X-0.275000X-0.200000X0.275000X-0.200000X0.275000X0.200000X0*%
%ADD41RoundRect,0.225000X-0.250000X0.225000X-0.250000X-0.225000X0.250000X-0.225000X0.250000X0.225000X0*%
%ADD42R,0.700000X1.000000*%
%ADD43R,0.700000X0.600000*%
%ADD44R,1.400000X1.200000*%
%ADD45C,7.000240*%
G04 APERTURE END LIST*
D10*
G04 #@! TO.C,IC1*
X25750000Y-76600000D03*
X26250000Y-76600000D03*
X26750000Y-76600000D03*
X27250000Y-76600000D03*
X27750000Y-76600000D03*
X28250000Y-76600000D03*
X28750000Y-76600000D03*
X29250000Y-76600000D03*
X29750000Y-76600000D03*
X30250000Y-76600000D03*
X30750000Y-76600000D03*
D11*
X31650000Y-77500000D03*
X31650000Y-78000000D03*
X31650000Y-78500000D03*
X31650000Y-79000000D03*
X31650000Y-79500000D03*
X31650000Y-80000000D03*
X31650000Y-80500000D03*
X31650000Y-81000000D03*
X31650000Y-81500000D03*
X31650000Y-82000000D03*
X31650000Y-82500000D03*
D10*
X30750000Y-83400000D03*
X30250000Y-83400000D03*
X29750000Y-83400000D03*
X29250000Y-83400000D03*
X28750000Y-83400000D03*
X28250000Y-83400000D03*
X27750000Y-83400000D03*
X27250000Y-83400000D03*
X26750000Y-83400000D03*
X26250000Y-83400000D03*
X25750000Y-83400000D03*
D11*
X24850000Y-82500000D03*
X24850000Y-82000000D03*
X24850000Y-81500000D03*
X24850000Y-81000000D03*
X24850000Y-80500000D03*
X24850000Y-80000000D03*
X24850000Y-79500000D03*
X24850000Y-79000000D03*
X24850000Y-78500000D03*
X24850000Y-78000000D03*
X24850000Y-77500000D03*
D12*
X28250000Y-80000000D03*
G04 #@! TD*
D13*
G04 #@! TO.C,D_49*
X37740000Y-116980000D03*
X37740000Y-120280000D03*
G04 #@! TD*
D14*
G04 #@! TO.C,K_18*
X171212500Y-86090000D03*
D15*
X166132500Y-86190000D03*
X176292500Y-86190000D03*
D16*
X167402500Y-83650000D03*
D17*
X165212500Y-83650000D03*
D16*
X173752500Y-81110000D03*
D18*
X175962500Y-81110000D03*
G04 #@! TD*
D14*
G04 #@! TO.C,K_35*
X271225000Y-105140000D03*
D15*
X266145000Y-105240000D03*
X276305000Y-105240000D03*
D16*
X267415000Y-102700000D03*
D17*
X265225000Y-102700000D03*
D16*
X273765000Y-100160000D03*
D18*
X275975000Y-100160000D03*
G04 #@! TD*
D14*
G04 #@! TO.C,K_17*
X152162500Y-86090000D03*
D15*
X147082500Y-86190000D03*
X157242500Y-86190000D03*
D16*
X148352500Y-83650000D03*
D17*
X146162500Y-83650000D03*
D16*
X154702500Y-81110000D03*
D18*
X156912500Y-81110000D03*
G04 #@! TD*
D14*
G04 #@! TO.C,K_21*
X228362500Y-86090000D03*
D15*
X223282500Y-86190000D03*
X233442500Y-86190000D03*
D16*
X224552500Y-83650000D03*
D17*
X222362500Y-83650000D03*
D16*
X230902500Y-81110000D03*
D18*
X233112500Y-81110000D03*
G04 #@! TD*
D14*
G04 #@! TO.C,K_27*
X118825000Y-105140000D03*
D15*
X113745000Y-105240000D03*
X123905000Y-105240000D03*
D16*
X115015000Y-102700000D03*
D17*
X112825000Y-102700000D03*
D16*
X121365000Y-100160000D03*
D18*
X123575000Y-100160000D03*
G04 #@! TD*
D14*
G04 #@! TO.C,K_47*
X252175000Y-124190000D03*
D15*
X247095000Y-124290000D03*
X257255000Y-124290000D03*
D16*
X248365000Y-121750000D03*
D17*
X246175000Y-121750000D03*
D16*
X254715000Y-119210000D03*
D18*
X256925000Y-119210000D03*
G04 #@! TD*
D14*
G04 #@! TO.C,K_20*
X209312500Y-86090000D03*
D15*
X204232500Y-86190000D03*
X214392500Y-86190000D03*
D16*
X205502500Y-83650000D03*
D17*
X203312500Y-83650000D03*
D16*
X211852500Y-81110000D03*
D18*
X214062500Y-81110000D03*
G04 #@! TD*
D15*
G04 #@! TO.C,K_11*
X261382500Y-67140000D03*
D14*
X266462500Y-67140000D03*
D15*
X271542500Y-67140000D03*
D16*
X262652500Y-64600000D03*
D17*
X260462500Y-64600000D03*
D16*
X269002500Y-62060000D03*
D18*
X271212500Y-62060000D03*
G04 #@! TD*
D19*
G04 #@! TO.C,K_41*
X128318250Y-116035000D03*
D14*
X140256250Y-124290000D03*
D15*
X145336250Y-124190000D03*
D20*
X152194250Y-131275000D03*
D19*
X152194250Y-116035000D03*
D15*
X135176250Y-124190000D03*
D20*
X128318250Y-131275000D03*
D17*
X146256250Y-126730000D03*
D16*
X144066250Y-126730000D03*
X137716250Y-129270000D03*
D18*
X135506250Y-129270000D03*
G04 #@! TD*
D21*
G04 #@! TO.C,Brd1*
X24500000Y-97160000D03*
X27040000Y-97160000D03*
X32120000Y-97160000D03*
X29580000Y-97160000D03*
G04 #@! TD*
D19*
G04 #@! TO.C,K_43*
X171180750Y-116035000D03*
D14*
X183118750Y-124290000D03*
D15*
X188198750Y-124190000D03*
D20*
X195056750Y-131275000D03*
D19*
X195056750Y-116035000D03*
D15*
X178038750Y-124190000D03*
D20*
X171180750Y-131275000D03*
D17*
X189118750Y-126730000D03*
D16*
X186928750Y-126730000D03*
X180578750Y-129270000D03*
D18*
X178368750Y-129270000D03*
G04 #@! TD*
D14*
G04 #@! TO.C,K_32*
X214075000Y-105140000D03*
D15*
X208995000Y-105240000D03*
X219155000Y-105240000D03*
D16*
X210265000Y-102700000D03*
D17*
X208075000Y-102700000D03*
D16*
X216615000Y-100160000D03*
D18*
X218825000Y-100160000D03*
G04 #@! TD*
D14*
G04 #@! TO.C,K_25*
X80725000Y-105140000D03*
D15*
X75645000Y-105240000D03*
X85805000Y-105240000D03*
D16*
X76915000Y-102700000D03*
D17*
X74725000Y-102700000D03*
D16*
X83265000Y-100160000D03*
D18*
X85475000Y-100160000D03*
G04 #@! TD*
D14*
G04 #@! TO.C,K_1*
X71200000Y-67040000D03*
D15*
X66120000Y-67140000D03*
X76280000Y-67140000D03*
D16*
X67390000Y-64600000D03*
D17*
X65200000Y-64600000D03*
D16*
X73740000Y-62060000D03*
D18*
X75950000Y-62060000D03*
G04 #@! TD*
D14*
G04 #@! TO.C,K_15*
X114062500Y-86090000D03*
D15*
X108982500Y-86190000D03*
X119142500Y-86190000D03*
D16*
X110252500Y-83650000D03*
D17*
X108062500Y-83650000D03*
D16*
X116602500Y-81110000D03*
D18*
X118812500Y-81110000D03*
G04 #@! TD*
D14*
G04 #@! TO.C,K_33*
X233125000Y-105140000D03*
D15*
X228045000Y-105240000D03*
X238205000Y-105240000D03*
D16*
X229315000Y-102700000D03*
D17*
X227125000Y-102700000D03*
D16*
X235665000Y-100160000D03*
D18*
X237875000Y-100160000D03*
G04 #@! TD*
D14*
G04 #@! TO.C,K_37*
X71200000Y-124190000D03*
D15*
X66120000Y-124290000D03*
X76280000Y-124290000D03*
D16*
X67390000Y-121750000D03*
D17*
X65200000Y-121750000D03*
D16*
X73740000Y-119210000D03*
D18*
X75950000Y-119210000D03*
G04 #@! TD*
D14*
G04 #@! TO.C,K_26*
X99775000Y-105140000D03*
D15*
X94695000Y-105240000D03*
X104855000Y-105240000D03*
D16*
X95965000Y-102700000D03*
D17*
X93775000Y-102700000D03*
D16*
X102315000Y-100160000D03*
D18*
X104525000Y-100160000D03*
G04 #@! TD*
D14*
G04 #@! TO.C,K_3*
X109300000Y-67040000D03*
D15*
X104220000Y-67140000D03*
X114380000Y-67140000D03*
D16*
X105490000Y-64600000D03*
D17*
X103300000Y-64600000D03*
D16*
X111840000Y-62060000D03*
D18*
X114050000Y-62060000D03*
G04 #@! TD*
D14*
G04 #@! TO.C,K_9*
X223600000Y-67040000D03*
D15*
X218520000Y-67140000D03*
X228680000Y-67140000D03*
D16*
X219790000Y-64600000D03*
D17*
X217600000Y-64600000D03*
D16*
X226140000Y-62060000D03*
D18*
X228350000Y-62060000D03*
G04 #@! TD*
D14*
G04 #@! TO.C,K_16*
X133112500Y-86090000D03*
D15*
X128032500Y-86190000D03*
X138192500Y-86190000D03*
D16*
X129302500Y-83650000D03*
D17*
X127112500Y-83650000D03*
D16*
X135652500Y-81110000D03*
D18*
X137862500Y-81110000D03*
G04 #@! TD*
D22*
G04 #@! TO.C,E1*
X31290000Y-105500000D03*
D23*
X26290000Y-105500000D03*
X28790000Y-105500000D03*
D24*
X23190000Y-113000000D03*
X34390000Y-113000000D03*
D23*
X26290000Y-120000000D03*
X31290000Y-120000000D03*
G04 #@! TD*
D14*
G04 #@! TO.C,K_31*
X195025000Y-105140000D03*
D15*
X189945000Y-105240000D03*
X200105000Y-105240000D03*
D16*
X191215000Y-102700000D03*
D17*
X189025000Y-102700000D03*
D16*
X197565000Y-100160000D03*
D18*
X199775000Y-100160000D03*
G04 #@! TD*
D14*
G04 #@! TO.C,K_29*
X156925000Y-105140000D03*
D15*
X151845000Y-105240000D03*
X162005000Y-105240000D03*
D16*
X153115000Y-102700000D03*
D17*
X150925000Y-102700000D03*
D16*
X159465000Y-100160000D03*
D18*
X161675000Y-100160000D03*
G04 #@! TD*
D14*
G04 #@! TO.C,K_8*
X204550000Y-67040000D03*
D15*
X199470000Y-67140000D03*
X209630000Y-67140000D03*
D16*
X200740000Y-64600000D03*
D17*
X198550000Y-64600000D03*
D16*
X207090000Y-62060000D03*
D18*
X209300000Y-62060000D03*
G04 #@! TD*
D14*
G04 #@! TO.C,K_36*
X52150000Y-124190000D03*
D15*
X47070000Y-124290000D03*
X57230000Y-124290000D03*
D16*
X48340000Y-121750000D03*
D17*
X46150000Y-121750000D03*
D16*
X54690000Y-119210000D03*
D18*
X56900000Y-119210000D03*
G04 #@! TD*
D14*
G04 #@! TO.C,K_39*
X109300000Y-124190000D03*
D15*
X104220000Y-124290000D03*
X114380000Y-124290000D03*
D16*
X105490000Y-121750000D03*
D17*
X103300000Y-121750000D03*
D16*
X111840000Y-119210000D03*
D18*
X114050000Y-119210000D03*
G04 #@! TD*
D14*
G04 #@! TO.C,K_30*
X175975000Y-105140000D03*
D15*
X170895000Y-105240000D03*
X181055000Y-105240000D03*
D16*
X172165000Y-102700000D03*
D17*
X169975000Y-102700000D03*
D16*
X178515000Y-100160000D03*
D18*
X180725000Y-100160000D03*
G04 #@! TD*
D14*
G04 #@! TO.C,K_48*
X271225000Y-124190000D03*
D15*
X266145000Y-124290000D03*
X276305000Y-124290000D03*
D16*
X267415000Y-121750000D03*
D17*
X265225000Y-121750000D03*
D16*
X273765000Y-119210000D03*
D18*
X275975000Y-119210000D03*
G04 #@! TD*
D15*
G04 #@! TO.C,K_12*
X49451250Y-86190000D03*
X59611250Y-86190000D03*
D14*
X54531250Y-86190000D03*
D17*
X48556250Y-83700000D03*
D16*
X50746250Y-83700000D03*
D18*
X59306250Y-81160000D03*
D16*
X57096250Y-81160000D03*
G04 #@! TD*
D15*
G04 #@! TO.C,K_44*
X187563750Y-124290000D03*
X197723750Y-124290000D03*
D14*
X192643750Y-124290000D03*
D17*
X186668750Y-121800000D03*
D16*
X188858750Y-121800000D03*
D18*
X197418750Y-119260000D03*
D16*
X195208750Y-119260000D03*
G04 #@! TD*
D14*
G04 #@! TO.C,K_46*
X233125000Y-124190000D03*
D15*
X228045000Y-124290000D03*
X238205000Y-124290000D03*
D16*
X229315000Y-121750000D03*
D17*
X227125000Y-121750000D03*
D16*
X235665000Y-119210000D03*
D18*
X237875000Y-119210000D03*
G04 #@! TD*
D14*
G04 #@! TO.C,K_0*
X52150000Y-67040000D03*
D15*
X47070000Y-67140000D03*
X57230000Y-67140000D03*
D16*
X48340000Y-64600000D03*
D17*
X46150000Y-64600000D03*
D16*
X54690000Y-62060000D03*
D18*
X56900000Y-62060000D03*
G04 #@! TD*
D14*
G04 #@! TO.C,K_42*
X161687500Y-124290000D03*
D15*
X156607500Y-124290000D03*
D20*
X173593750Y-131275000D03*
D19*
X173593750Y-116035000D03*
D15*
X166767500Y-124290000D03*
D19*
X149781250Y-116035000D03*
D20*
X149781250Y-131275000D03*
D16*
X157877500Y-121750000D03*
D17*
X155687500Y-121750000D03*
D18*
X166437500Y-119210000D03*
D16*
X164227500Y-119210000D03*
G04 #@! TD*
D14*
G04 #@! TO.C,K_6*
X166450000Y-67040000D03*
D15*
X161370000Y-67140000D03*
X171530000Y-67140000D03*
D16*
X162640000Y-64600000D03*
D17*
X160450000Y-64600000D03*
D16*
X168990000Y-62060000D03*
D18*
X171200000Y-62060000D03*
G04 #@! TD*
D15*
G04 #@! TO.C,K_24*
X51832500Y-105240000D03*
D14*
X56912500Y-105240000D03*
D15*
X61992500Y-105240000D03*
D16*
X53102500Y-102700000D03*
D17*
X50912500Y-102700000D03*
D16*
X59452500Y-100160000D03*
D18*
X61662500Y-100160000D03*
G04 #@! TD*
D15*
G04 #@! TO.C,K_23*
X263763750Y-86190000D03*
X273923750Y-86190000D03*
D14*
X268843750Y-86190000D03*
D17*
X262868750Y-83700000D03*
D16*
X265058750Y-83700000D03*
D18*
X273618750Y-81160000D03*
D16*
X271408750Y-81160000D03*
G04 #@! TD*
D14*
G04 #@! TO.C,K_2*
X90250000Y-67040000D03*
D15*
X85170000Y-67140000D03*
X95330000Y-67140000D03*
D16*
X86440000Y-64600000D03*
D17*
X84250000Y-64600000D03*
D16*
X92790000Y-62060000D03*
D18*
X95000000Y-62060000D03*
G04 #@! TD*
D14*
G04 #@! TO.C,K_13*
X75962500Y-86090000D03*
D15*
X70882500Y-86190000D03*
X81042500Y-86190000D03*
D16*
X72152500Y-83650000D03*
D17*
X69962500Y-83650000D03*
D16*
X78502500Y-81110000D03*
D18*
X80712500Y-81110000D03*
G04 #@! TD*
D14*
G04 #@! TO.C,K_7*
X185500000Y-67040000D03*
D15*
X180420000Y-67140000D03*
X190580000Y-67140000D03*
D16*
X181690000Y-64600000D03*
D17*
X179500000Y-64600000D03*
D16*
X188040000Y-62060000D03*
D18*
X190250000Y-62060000D03*
G04 #@! TD*
D14*
G04 #@! TO.C,K_28*
X137875000Y-105140000D03*
D15*
X132795000Y-105240000D03*
X142955000Y-105240000D03*
D16*
X134065000Y-102700000D03*
D17*
X131875000Y-102700000D03*
D16*
X140415000Y-100160000D03*
D18*
X142625000Y-100160000D03*
G04 #@! TD*
D14*
G04 #@! TO.C,K_19*
X190262500Y-86090000D03*
D15*
X185182500Y-86190000D03*
X195342500Y-86190000D03*
D16*
X186452500Y-83650000D03*
D17*
X184262500Y-83650000D03*
D16*
X192802500Y-81110000D03*
D18*
X195012500Y-81110000D03*
G04 #@! TD*
D15*
G04 #@! TO.C,K_40*
X125651250Y-124290000D03*
X135811250Y-124290000D03*
D14*
X130731250Y-124290000D03*
D17*
X124756250Y-121800000D03*
D16*
X126946250Y-121800000D03*
D18*
X135506250Y-119260000D03*
D16*
X133296250Y-119260000D03*
G04 #@! TD*
D14*
G04 #@! TO.C,K_34*
X252175000Y-105140000D03*
D15*
X247095000Y-105240000D03*
X257255000Y-105240000D03*
D16*
X248365000Y-102700000D03*
D17*
X246175000Y-102700000D03*
D16*
X254715000Y-100160000D03*
D18*
X256925000Y-100160000D03*
G04 #@! TD*
D14*
G04 #@! TO.C,K_45*
X214075000Y-124190000D03*
D15*
X208995000Y-124290000D03*
X219155000Y-124290000D03*
D16*
X210265000Y-121750000D03*
D17*
X208075000Y-121750000D03*
D16*
X216615000Y-119210000D03*
D18*
X218825000Y-119210000D03*
G04 #@! TD*
D14*
G04 #@! TO.C,K_38*
X90250000Y-124190000D03*
D15*
X85170000Y-124290000D03*
X95330000Y-124290000D03*
D16*
X86440000Y-121750000D03*
D17*
X84250000Y-121750000D03*
D16*
X92790000Y-119210000D03*
D18*
X95000000Y-119210000D03*
G04 #@! TD*
D14*
G04 #@! TO.C,K_5*
X147400000Y-67040000D03*
D15*
X142320000Y-67140000D03*
X152480000Y-67140000D03*
D16*
X143590000Y-64600000D03*
D17*
X141400000Y-64600000D03*
D16*
X149940000Y-62060000D03*
D18*
X152150000Y-62060000D03*
G04 #@! TD*
D14*
G04 #@! TO.C,K_22*
X247412500Y-86090000D03*
D15*
X242332500Y-86190000D03*
X252492500Y-86190000D03*
D16*
X243602500Y-83650000D03*
D17*
X241412500Y-83650000D03*
D16*
X249952500Y-81110000D03*
D18*
X252162500Y-81110000D03*
G04 #@! TD*
D14*
G04 #@! TO.C,K_10*
X242650000Y-67040000D03*
D15*
X237570000Y-67140000D03*
X247730000Y-67140000D03*
D16*
X238840000Y-64600000D03*
D17*
X236650000Y-64600000D03*
D16*
X245190000Y-62060000D03*
D18*
X247400000Y-62060000D03*
G04 #@! TD*
D14*
G04 #@! TO.C,K_14*
X95012500Y-86090000D03*
D15*
X89932500Y-86190000D03*
X100092500Y-86190000D03*
D16*
X91202500Y-83650000D03*
D17*
X89012500Y-83650000D03*
D16*
X97552500Y-81110000D03*
D18*
X99762500Y-81110000D03*
G04 #@! TD*
D14*
G04 #@! TO.C,K_4*
X128350000Y-67040000D03*
D15*
X123270000Y-67140000D03*
X133430000Y-67140000D03*
D16*
X124540000Y-64600000D03*
D17*
X122350000Y-64600000D03*
D16*
X130890000Y-62060000D03*
D18*
X133100000Y-62060000D03*
G04 #@! TD*
D13*
G04 #@! TO.C,D_4*
X136875000Y-69290000D03*
X136875000Y-65990000D03*
G04 #@! TD*
G04 #@! TO.C,D_44*
X206770000Y-128760000D03*
X206770000Y-125460000D03*
G04 #@! TD*
D25*
G04 #@! TO.C,SW1*
X41540000Y-72030000D03*
X35340000Y-72030000D03*
X35340000Y-68330000D03*
X41540000Y-68330000D03*
G04 #@! TD*
D13*
G04 #@! TO.C,D_27*
X127350000Y-107390000D03*
X127350000Y-104090000D03*
G04 #@! TD*
G04 #@! TO.C,D_18*
X179737500Y-88340000D03*
X179737500Y-85040000D03*
G04 #@! TD*
D26*
G04 #@! TO.C,J2*
X25360000Y-62550000D03*
X31140000Y-62550000D03*
D27*
X25000000Y-63995000D03*
X25800000Y-63995000D03*
D28*
X27000000Y-63995000D03*
X28000000Y-63995000D03*
X28500000Y-63995000D03*
X29500000Y-63995000D03*
D27*
X30700000Y-63995000D03*
X31500000Y-63995000D03*
X31500000Y-63995000D03*
X30700000Y-63995000D03*
D28*
X30000000Y-63995000D03*
X29000000Y-63995000D03*
X27500000Y-63995000D03*
X26500000Y-63995000D03*
D27*
X25800000Y-63995000D03*
X25000000Y-63995000D03*
D29*
X32570000Y-58900000D03*
D30*
X32570000Y-63080000D03*
D29*
X23930000Y-58900000D03*
D30*
X23930000Y-63080000D03*
G04 #@! TD*
D31*
G04 #@! TO.C,C10*
X27845000Y-107670000D03*
X26295000Y-107670000D03*
G04 #@! TD*
D32*
G04 #@! TO.C,C12*
X30675000Y-99470000D03*
X32225000Y-99470000D03*
G04 #@! TD*
D13*
G04 #@! TO.C,D_10*
X251175000Y-69290000D03*
X251175000Y-65990000D03*
G04 #@! TD*
G04 #@! TO.C,D_12*
X65437500Y-88340000D03*
X65437500Y-85040000D03*
G04 #@! TD*
G04 #@! TO.C,D_24*
X67470000Y-107390000D03*
X67470000Y-104090000D03*
G04 #@! TD*
G04 #@! TO.C,D_45*
X222600000Y-126440000D03*
X222600000Y-123140000D03*
G04 #@! TD*
D33*
G04 #@! TO.C,R4*
X25030000Y-86500000D03*
X25030000Y-84850000D03*
G04 #@! TD*
D13*
G04 #@! TO.C,D_22*
X255937500Y-88340000D03*
X255937500Y-85040000D03*
G04 #@! TD*
D31*
G04 #@! TO.C,C3*
X22925000Y-75920000D03*
X21375000Y-75920000D03*
G04 #@! TD*
D34*
G04 #@! TO.C,R10*
X26135000Y-99430000D03*
X24485000Y-99430000D03*
G04 #@! TD*
D33*
G04 #@! TO.C,R6*
X27750000Y-73175000D03*
X27750000Y-71525000D03*
G04 #@! TD*
D35*
G04 #@! TO.C,J1*
X40580000Y-59560000D03*
X38040000Y-59560000D03*
X40580000Y-62100000D03*
X38040000Y-62100000D03*
X40580000Y-64640000D03*
D36*
X38040000Y-64640000D03*
G04 #@! TD*
D32*
G04 #@! TO.C,C5*
X30830000Y-84910000D03*
X32380000Y-84910000D03*
G04 #@! TD*
D37*
G04 #@! TO.C,R8*
X26295000Y-109230000D03*
X27945000Y-109230000D03*
G04 #@! TD*
D31*
G04 #@! TO.C,C4*
X23375000Y-83360000D03*
X21825000Y-83360000D03*
G04 #@! TD*
D13*
G04 #@! TO.C,D_9*
X232125000Y-69290000D03*
X232125000Y-65990000D03*
G04 #@! TD*
D37*
G04 #@! TO.C,R11*
X27585000Y-99440000D03*
X29235000Y-99440000D03*
G04 #@! TD*
D38*
G04 #@! TO.C,Dled1*
X20212500Y-59870000D03*
X21787500Y-59870000D03*
G04 #@! TD*
D13*
G04 #@! TO.C,D_29*
X165450000Y-107390000D03*
X165450000Y-104090000D03*
G04 #@! TD*
G04 #@! TO.C,D_31*
X203550000Y-107390000D03*
X203550000Y-104090000D03*
G04 #@! TD*
G04 #@! TO.C,D_8*
X213075000Y-69290000D03*
X213075000Y-65990000D03*
G04 #@! TD*
G04 #@! TO.C,D_0*
X60675000Y-69290000D03*
X60675000Y-65990000D03*
G04 #@! TD*
G04 #@! TO.C,D_32*
X222600000Y-107390000D03*
X222600000Y-104090000D03*
G04 #@! TD*
G04 #@! TO.C,D_34*
X260700000Y-107390000D03*
X260700000Y-104090000D03*
G04 #@! TD*
D31*
G04 #@! TO.C,C1*
X39210000Y-78220000D03*
X37660000Y-78220000D03*
G04 #@! TD*
D13*
G04 #@! TO.C,D_26*
X108300000Y-107390000D03*
X108300000Y-104090000D03*
G04 #@! TD*
D31*
G04 #@! TO.C,C11*
X31665000Y-107670000D03*
X30115000Y-107670000D03*
G04 #@! TD*
D13*
G04 #@! TO.C,D_14*
X103537500Y-88340000D03*
X103537500Y-85040000D03*
G04 #@! TD*
G04 #@! TO.C,D_30*
X184500000Y-107390000D03*
X184500000Y-104090000D03*
G04 #@! TD*
G04 #@! TO.C,D_5*
X155925000Y-69290000D03*
X155925000Y-65990000D03*
G04 #@! TD*
G04 #@! TO.C,D_33*
X241650000Y-107390000D03*
X241650000Y-104090000D03*
G04 #@! TD*
G04 #@! TO.C,D_48*
X278670000Y-126440000D03*
X278670000Y-123140000D03*
G04 #@! TD*
D39*
G04 #@! TO.C,C6*
X31220000Y-73125000D03*
X31220000Y-71575000D03*
G04 #@! TD*
D40*
G04 #@! TO.C,R1*
X21820000Y-62955000D03*
X21820000Y-64605000D03*
G04 #@! TD*
D41*
G04 #@! TO.C,C2*
X40750000Y-79955000D03*
X40750000Y-81505000D03*
G04 #@! TD*
D13*
G04 #@! TO.C,D_28*
X146400000Y-107390000D03*
X146400000Y-104090000D03*
G04 #@! TD*
D40*
G04 #@! TO.C,R3*
X34520000Y-62945000D03*
X34520000Y-64595000D03*
G04 #@! TD*
D13*
G04 #@! TO.C,D_3*
X117825000Y-69290000D03*
X117825000Y-65990000D03*
G04 #@! TD*
D34*
G04 #@! TO.C,R7*
X21825000Y-61440000D03*
X20175000Y-61440000D03*
G04 #@! TD*
D13*
G04 #@! TO.C,D_20*
X217837500Y-88340000D03*
X217837500Y-85040000D03*
G04 #@! TD*
D42*
G04 #@! TO.C,ESD1*
X29220000Y-67295000D03*
D43*
X29220000Y-68995000D03*
X27220000Y-68995000D03*
X27220000Y-67095000D03*
G04 #@! TD*
D13*
G04 #@! TO.C,D_47*
X260700000Y-126440000D03*
X260700000Y-123140000D03*
G04 #@! TD*
G04 #@! TO.C,D_37*
X79725000Y-126440000D03*
X79725000Y-123140000D03*
G04 #@! TD*
G04 #@! TO.C,D_23*
X277630000Y-88350000D03*
X277630000Y-85050000D03*
G04 #@! TD*
G04 #@! TO.C,D_39*
X115350000Y-129820000D03*
X115350000Y-126520000D03*
G04 #@! TD*
G04 #@! TO.C,D_21*
X236887500Y-88340000D03*
X236887500Y-85040000D03*
G04 #@! TD*
G04 #@! TO.C,D_40*
X117780000Y-129810000D03*
X117780000Y-126510000D03*
G04 #@! TD*
G04 #@! TO.C,D_42*
X168940000Y-126440000D03*
X168940000Y-123140000D03*
G04 #@! TD*
G04 #@! TO.C,D_46*
X241650000Y-126440000D03*
X241650000Y-123140000D03*
G04 #@! TD*
G04 #@! TO.C,D_11*
X275620000Y-69280000D03*
X275620000Y-65980000D03*
G04 #@! TD*
D39*
G04 #@! TO.C,C9*
X29700000Y-73125000D03*
X29700000Y-71575000D03*
G04 #@! TD*
D31*
G04 #@! TO.C,C8*
X22925000Y-78000000D03*
X21375000Y-78000000D03*
G04 #@! TD*
D13*
G04 #@! TO.C,D_15*
X122587500Y-88340000D03*
X122587500Y-85040000D03*
G04 #@! TD*
G04 #@! TO.C,D_16*
X141637500Y-88340000D03*
X141637500Y-85040000D03*
G04 #@! TD*
G04 #@! TO.C,D_25*
X89250000Y-107390000D03*
X89250000Y-104090000D03*
G04 #@! TD*
G04 #@! TO.C,D_7*
X194025000Y-69290000D03*
X194025000Y-65990000D03*
G04 #@! TD*
D32*
G04 #@! TO.C,C7*
X33580000Y-78200000D03*
X35130000Y-78200000D03*
G04 #@! TD*
D33*
G04 #@! TO.C,R5*
X26230000Y-73175000D03*
X26230000Y-71525000D03*
G04 #@! TD*
D13*
G04 #@! TO.C,D_38*
X98775000Y-126440000D03*
X98775000Y-123140000D03*
G04 #@! TD*
G04 #@! TO.C,D_43*
X204280000Y-128770000D03*
X204280000Y-125470000D03*
G04 #@! TD*
D37*
G04 #@! TO.C,R9*
X30065000Y-109220000D03*
X31715000Y-109220000D03*
G04 #@! TD*
D13*
G04 #@! TO.C,D_35*
X278670000Y-107400000D03*
X278670000Y-104100000D03*
G04 #@! TD*
G04 #@! TO.C,D_1*
X79725000Y-69290000D03*
X79725000Y-65990000D03*
G04 #@! TD*
G04 #@! TO.C,D_19*
X198787500Y-88340000D03*
X198787500Y-85040000D03*
G04 #@! TD*
G04 #@! TO.C,D_36*
X60675000Y-126440000D03*
X60675000Y-123140000D03*
G04 #@! TD*
G04 #@! TO.C,D_17*
X160687500Y-88340000D03*
X160687500Y-85040000D03*
G04 #@! TD*
G04 #@! TO.C,D_41*
X120210000Y-129800000D03*
X120210000Y-126500000D03*
G04 #@! TD*
G04 #@! TO.C,D_6*
X174975000Y-69290000D03*
X174975000Y-65990000D03*
G04 #@! TD*
D44*
G04 #@! TO.C,Y1*
X38950000Y-81600000D03*
X36750000Y-81600000D03*
X36750000Y-79900000D03*
X38950000Y-79900000D03*
G04 #@! TD*
D13*
G04 #@! TO.C,D_13*
X84487500Y-88340000D03*
X84487500Y-85040000D03*
G04 #@! TD*
D37*
G04 #@! TO.C,R2*
X33530000Y-76680000D03*
X35180000Y-76680000D03*
G04 #@! TD*
D13*
G04 #@! TO.C,D_2*
X98775000Y-69290000D03*
X98775000Y-65990000D03*
G04 #@! TD*
D45*
G04 #@! TO.C,*
X46424800Y-75926440D03*
G04 #@! TD*
G04 #@! TO.C,*
X161740800Y-94722440D03*
G04 #@! TD*
G04 #@! TO.C,*
X276993300Y-75926440D03*
G04 #@! TD*
G04 #@! TO.C,*
X46424800Y-114534440D03*
G04 #@! TD*
G04 #@! TO.C,*
X276993300Y-114000000D03*
G04 #@! TD*
M02*
