%TF.GenerationSoftware,KiCad,Pcbnew,(6.0.5)*%
%TF.CreationDate,2022-06-08T00:17:25-04:00*%
%TF.ProjectId,platetest,706c6174-6574-4657-9374-2e6b69636164,rev?*%
%TF.SameCoordinates,Original*%
%TF.FileFunction,Profile,NP*%
%FSLAX46Y46*%
G04 Gerber Fmt 4.6, Leading zero omitted, Abs format (unit mm)*
G04 Created by KiCad (PCBNEW (6.0.5)) date 2022-06-08 00:17:25*
%MOMM*%
%LPD*%
G01*
G04 APERTURE LIST*
%TA.AperFunction,Profile*%
%ADD10C,0.250000*%
%TD*%
G04 APERTURE END LIST*
D10*
X22075000Y-16525000D02*
X35075000Y-16525000D01*
X21575000Y-16025000D02*
G75*
G03*
X22075000Y-16525000I500000J0D01*
G01*
X21575000Y-3025000D02*
X21575000Y-16025000D01*
X22075000Y-2525000D02*
G75*
G03*
X21575000Y-3025000I0J-500000D01*
G01*
X22075000Y-2525000D02*
X35075000Y-2525000D01*
X35575000Y-3025000D02*
G75*
G03*
X35075000Y-2525000I-500000J0D01*
G01*
X35575000Y-3025000D02*
X35575000Y-16025000D01*
X35075000Y-16525000D02*
G75*
G03*
X35575000Y-16025000I0J500000D01*
G01*
X41125000Y-16525000D02*
X54125000Y-16525000D01*
X40625000Y-16025000D02*
G75*
G03*
X41125000Y-16525000I500000J0D01*
G01*
X40625000Y-3025000D02*
X40625000Y-16025000D01*
X41125000Y-2525000D02*
G75*
G03*
X40625000Y-3025000I0J-500000D01*
G01*
X41125000Y-2525000D02*
X54125000Y-2525000D01*
X54625000Y-3025000D02*
G75*
G03*
X54125000Y-2525000I-500000J0D01*
G01*
X54625000Y-3025000D02*
X54625000Y-16025000D01*
X54125000Y-16525000D02*
G75*
G03*
X54625000Y-16025000I0J500000D01*
G01*
X60175000Y-16525000D02*
X73175000Y-16525000D01*
X59675000Y-16025000D02*
G75*
G03*
X60175000Y-16525000I500000J0D01*
G01*
X59675000Y-3025000D02*
X59675000Y-16025000D01*
X60175000Y-2525000D02*
G75*
G03*
X59675000Y-3025000I0J-500000D01*
G01*
X60175000Y-2525000D02*
X73175000Y-2525000D01*
X73675000Y-3025000D02*
G75*
G03*
X73175000Y-2525000I-500000J0D01*
G01*
X73675000Y-3025000D02*
X73675000Y-16025000D01*
X73175000Y-16525000D02*
G75*
G03*
X73675000Y-16025000I0J500000D01*
G01*
X79225000Y-16525000D02*
X92225000Y-16525000D01*
X78725000Y-16025000D02*
G75*
G03*
X79225000Y-16525000I500000J0D01*
G01*
X78725000Y-3025000D02*
X78725000Y-16025000D01*
X79225000Y-2525000D02*
G75*
G03*
X78725000Y-3025000I0J-500000D01*
G01*
X79225000Y-2525000D02*
X92225000Y-2525000D01*
X92725000Y-3025000D02*
G75*
G03*
X92225000Y-2525000I-500000J0D01*
G01*
X92725000Y-3025000D02*
X92725000Y-16025000D01*
X92225000Y-16525000D02*
G75*
G03*
X92725000Y-16025000I0J500000D01*
G01*
X98275000Y-16525000D02*
X111275000Y-16525000D01*
X97775000Y-16025000D02*
G75*
G03*
X98275000Y-16525000I500000J0D01*
G01*
X97775000Y-3025000D02*
X97775000Y-16025000D01*
X98275000Y-2525000D02*
G75*
G03*
X97775000Y-3025000I0J-500000D01*
G01*
X98275000Y-2525000D02*
X111275000Y-2525000D01*
X111775000Y-3025000D02*
G75*
G03*
X111275000Y-2525000I-500000J0D01*
G01*
X111775000Y-3025000D02*
X111775000Y-16025000D01*
X111275000Y-16525000D02*
G75*
G03*
X111775000Y-16025000I0J500000D01*
G01*
X117325000Y-16525000D02*
X130325000Y-16525000D01*
X116825000Y-16025000D02*
G75*
G03*
X117325000Y-16525000I500000J0D01*
G01*
X116825000Y-3025000D02*
X116825000Y-16025000D01*
X117325000Y-2525000D02*
G75*
G03*
X116825000Y-3025000I0J-500000D01*
G01*
X117325000Y-2525000D02*
X130325000Y-2525000D01*
X130825000Y-3025000D02*
G75*
G03*
X130325000Y-2525000I-500000J0D01*
G01*
X130825000Y-3025000D02*
X130825000Y-16025000D01*
X130325000Y-16525000D02*
G75*
G03*
X130825000Y-16025000I0J500000D01*
G01*
X136375000Y-16525000D02*
X149375000Y-16525000D01*
X135875000Y-16025000D02*
G75*
G03*
X136375000Y-16525000I500000J0D01*
G01*
X135875000Y-3025000D02*
X135875000Y-16025000D01*
X136375000Y-2525000D02*
G75*
G03*
X135875000Y-3025000I0J-500000D01*
G01*
X136375000Y-2525000D02*
X149375000Y-2525000D01*
X149875000Y-3025000D02*
G75*
G03*
X149375000Y-2525000I-500000J0D01*
G01*
X149875000Y-3025000D02*
X149875000Y-16025000D01*
X149375000Y-16525000D02*
G75*
G03*
X149875000Y-16025000I0J500000D01*
G01*
X155425000Y-16525000D02*
X168425000Y-16525000D01*
X154925000Y-16025000D02*
G75*
G03*
X155425000Y-16525000I500000J0D01*
G01*
X154925000Y-3025000D02*
X154925000Y-16025000D01*
X155425000Y-2525000D02*
G75*
G03*
X154925000Y-3025000I0J-500000D01*
G01*
X155425000Y-2525000D02*
X168425000Y-2525000D01*
X168925000Y-3025000D02*
G75*
G03*
X168425000Y-2525000I-500000J0D01*
G01*
X168925000Y-3025000D02*
X168925000Y-16025000D01*
X168425000Y-16525000D02*
G75*
G03*
X168925000Y-16025000I0J500000D01*
G01*
X174475000Y-16525000D02*
X187475000Y-16525000D01*
X173975000Y-16025000D02*
G75*
G03*
X174475000Y-16525000I500000J0D01*
G01*
X173975000Y-3025000D02*
X173975000Y-16025000D01*
X174475000Y-2525000D02*
G75*
G03*
X173975000Y-3025000I0J-500000D01*
G01*
X174475000Y-2525000D02*
X187475000Y-2525000D01*
X187975000Y-3025000D02*
G75*
G03*
X187475000Y-2525000I-500000J0D01*
G01*
X187975000Y-3025000D02*
X187975000Y-16025000D01*
X187475000Y-16525000D02*
G75*
G03*
X187975000Y-16025000I0J500000D01*
G01*
X193525000Y-16525000D02*
X206525000Y-16525000D01*
X193025000Y-16025000D02*
G75*
G03*
X193525000Y-16525000I500000J0D01*
G01*
X193025000Y-3025000D02*
X193025000Y-16025000D01*
X193525000Y-2525000D02*
G75*
G03*
X193025000Y-3025000I0J-500000D01*
G01*
X193525000Y-2525000D02*
X206525000Y-2525000D01*
X207025000Y-3025000D02*
G75*
G03*
X206525000Y-2525000I-500000J0D01*
G01*
X207025000Y-3025000D02*
X207025000Y-16025000D01*
X206525000Y-16525000D02*
G75*
G03*
X207025000Y-16025000I0J500000D01*
G01*
X217337500Y-16525000D02*
X230337500Y-16525000D01*
X216837500Y-16025000D02*
G75*
G03*
X217337500Y-16525000I500000J0D01*
G01*
X216837500Y-3025000D02*
X216837500Y-16025000D01*
X217337500Y-2525000D02*
G75*
G03*
X216837500Y-3025000I0J-500000D01*
G01*
X217337500Y-2525000D02*
X230337500Y-2525000D01*
X230837500Y-3025000D02*
G75*
G03*
X230337500Y-2525000I-500000J0D01*
G01*
X230837500Y-3025000D02*
X230837500Y-16025000D01*
X230337500Y-16525000D02*
G75*
G03*
X230837500Y-16025000I0J500000D01*
G01*
X26837500Y-35575000D02*
X39837500Y-35575000D01*
X26337500Y-35075000D02*
G75*
G03*
X26837500Y-35575000I500000J0D01*
G01*
X26337500Y-22075000D02*
X26337500Y-35075000D01*
X26837500Y-21575000D02*
G75*
G03*
X26337500Y-22075000I0J-500000D01*
G01*
X26837500Y-21575000D02*
X39837500Y-21575000D01*
X40337500Y-22075000D02*
G75*
G03*
X39837500Y-21575000I-500000J0D01*
G01*
X40337500Y-22075000D02*
X40337500Y-35075000D01*
X39837500Y-35575000D02*
G75*
G03*
X40337500Y-35075000I0J500000D01*
G01*
X45887500Y-35575000D02*
X58887500Y-35575000D01*
X45387500Y-35075000D02*
G75*
G03*
X45887500Y-35575000I500000J0D01*
G01*
X45387500Y-22075000D02*
X45387500Y-35075000D01*
X45887500Y-21575000D02*
G75*
G03*
X45387500Y-22075000I0J-500000D01*
G01*
X45887500Y-21575000D02*
X58887500Y-21575000D01*
X59387500Y-22075000D02*
G75*
G03*
X58887500Y-21575000I-500000J0D01*
G01*
X59387500Y-22075000D02*
X59387500Y-35075000D01*
X58887500Y-35575000D02*
G75*
G03*
X59387500Y-35075000I0J500000D01*
G01*
X64937500Y-35575000D02*
X77937500Y-35575000D01*
X64437500Y-35075000D02*
G75*
G03*
X64937500Y-35575000I500000J0D01*
G01*
X64437500Y-22075000D02*
X64437500Y-35075000D01*
X64937500Y-21575000D02*
G75*
G03*
X64437500Y-22075000I0J-500000D01*
G01*
X64937500Y-21575000D02*
X77937500Y-21575000D01*
X78437500Y-22075000D02*
G75*
G03*
X77937500Y-21575000I-500000J0D01*
G01*
X78437500Y-22075000D02*
X78437500Y-35075000D01*
X77937500Y-35575000D02*
G75*
G03*
X78437500Y-35075000I0J500000D01*
G01*
X83987500Y-35575000D02*
X96987500Y-35575000D01*
X83487500Y-35075000D02*
G75*
G03*
X83987500Y-35575000I500000J0D01*
G01*
X83487500Y-22075000D02*
X83487500Y-35075000D01*
X83987500Y-21575000D02*
G75*
G03*
X83487500Y-22075000I0J-500000D01*
G01*
X83987500Y-21575000D02*
X96987500Y-21575000D01*
X97487500Y-22075000D02*
G75*
G03*
X96987500Y-21575000I-500000J0D01*
G01*
X97487500Y-22075000D02*
X97487500Y-35075000D01*
X96987500Y-35575000D02*
G75*
G03*
X97487500Y-35075000I0J500000D01*
G01*
X103037500Y-35575000D02*
X116037500Y-35575000D01*
X102537500Y-35075000D02*
G75*
G03*
X103037500Y-35575000I500000J0D01*
G01*
X102537500Y-22075000D02*
X102537500Y-35075000D01*
X103037500Y-21575000D02*
G75*
G03*
X102537500Y-22075000I0J-500000D01*
G01*
X103037500Y-21575000D02*
X116037500Y-21575000D01*
X116537500Y-22075000D02*
G75*
G03*
X116037500Y-21575000I-500000J0D01*
G01*
X116537500Y-22075000D02*
X116537500Y-35075000D01*
X116037500Y-35575000D02*
G75*
G03*
X116537500Y-35075000I0J500000D01*
G01*
X122087500Y-35575000D02*
X135087500Y-35575000D01*
X121587500Y-35075000D02*
G75*
G03*
X122087500Y-35575000I500000J0D01*
G01*
X121587500Y-22075000D02*
X121587500Y-35075000D01*
X122087500Y-21575000D02*
G75*
G03*
X121587500Y-22075000I0J-500000D01*
G01*
X122087500Y-21575000D02*
X135087500Y-21575000D01*
X135587500Y-22075000D02*
G75*
G03*
X135087500Y-21575000I-500000J0D01*
G01*
X135587500Y-22075000D02*
X135587500Y-35075000D01*
X135087500Y-35575000D02*
G75*
G03*
X135587500Y-35075000I0J500000D01*
G01*
X141137500Y-35575000D02*
X154137500Y-35575000D01*
X140637500Y-35075000D02*
G75*
G03*
X141137500Y-35575000I500000J0D01*
G01*
X140637500Y-22075000D02*
X140637500Y-35075000D01*
X141137500Y-21575000D02*
G75*
G03*
X140637500Y-22075000I0J-500000D01*
G01*
X141137500Y-21575000D02*
X154137500Y-21575000D01*
X154637500Y-22075000D02*
G75*
G03*
X154137500Y-21575000I-500000J0D01*
G01*
X154637500Y-22075000D02*
X154637500Y-35075000D01*
X154137500Y-35575000D02*
G75*
G03*
X154637500Y-35075000I0J500000D01*
G01*
X160187500Y-35575000D02*
X173187500Y-35575000D01*
X159687500Y-35075000D02*
G75*
G03*
X160187500Y-35575000I500000J0D01*
G01*
X159687500Y-22075000D02*
X159687500Y-35075000D01*
X160187500Y-21575000D02*
G75*
G03*
X159687500Y-22075000I0J-500000D01*
G01*
X160187500Y-21575000D02*
X173187500Y-21575000D01*
X173687500Y-22075000D02*
G75*
G03*
X173187500Y-21575000I-500000J0D01*
G01*
X173687500Y-22075000D02*
X173687500Y-35075000D01*
X173187500Y-35575000D02*
G75*
G03*
X173687500Y-35075000I0J500000D01*
G01*
X179237500Y-35575000D02*
X192237500Y-35575000D01*
X178737500Y-35075000D02*
G75*
G03*
X179237500Y-35575000I500000J0D01*
G01*
X178737500Y-22075000D02*
X178737500Y-35075000D01*
X179237500Y-21575000D02*
G75*
G03*
X178737500Y-22075000I0J-500000D01*
G01*
X179237500Y-21575000D02*
X192237500Y-21575000D01*
X192737500Y-22075000D02*
G75*
G03*
X192237500Y-21575000I-500000J0D01*
G01*
X192737500Y-22075000D02*
X192737500Y-35075000D01*
X192237500Y-35575000D02*
G75*
G03*
X192737500Y-35075000I0J500000D01*
G01*
X198287500Y-35575000D02*
X211287500Y-35575000D01*
X197787500Y-35075000D02*
G75*
G03*
X198287500Y-35575000I500000J0D01*
G01*
X197787500Y-22075000D02*
X197787500Y-35075000D01*
X198287500Y-21575000D02*
G75*
G03*
X197787500Y-22075000I0J-500000D01*
G01*
X198287500Y-21575000D02*
X211287500Y-21575000D01*
X211787500Y-22075000D02*
G75*
G03*
X211287500Y-21575000I-500000J0D01*
G01*
X211787500Y-22075000D02*
X211787500Y-35075000D01*
X211287500Y-35575000D02*
G75*
G03*
X211787500Y-35075000I0J500000D01*
G01*
X7787500Y-54625000D02*
X20787500Y-54625000D01*
X7287500Y-54125000D02*
G75*
G03*
X7787500Y-54625000I500000J0D01*
G01*
X7287500Y-41125000D02*
X7287500Y-54125000D01*
X7787500Y-40625000D02*
G75*
G03*
X7287500Y-41125000I0J-500000D01*
G01*
X7787500Y-40625000D02*
X20787500Y-40625000D01*
X21287500Y-41125000D02*
G75*
G03*
X20787500Y-40625000I-500000J0D01*
G01*
X21287500Y-41125000D02*
X21287500Y-54125000D01*
X20787500Y-54625000D02*
G75*
G03*
X21287500Y-54125000I0J500000D01*
G01*
X31600000Y-54625000D02*
X44600000Y-54625000D01*
X31100000Y-54125000D02*
G75*
G03*
X31600000Y-54625000I500000J0D01*
G01*
X31100000Y-41125000D02*
X31100000Y-54125000D01*
X31600000Y-40625000D02*
G75*
G03*
X31100000Y-41125000I0J-500000D01*
G01*
X31600000Y-40625000D02*
X44600000Y-40625000D01*
X45100000Y-41125000D02*
G75*
G03*
X44600000Y-40625000I-500000J0D01*
G01*
X45100000Y-41125000D02*
X45100000Y-54125000D01*
X44600000Y-54625000D02*
G75*
G03*
X45100000Y-54125000I0J500000D01*
G01*
X50650000Y-54625000D02*
X63650000Y-54625000D01*
X50150000Y-54125000D02*
G75*
G03*
X50650000Y-54625000I500000J0D01*
G01*
X50150000Y-41125000D02*
X50150000Y-54125000D01*
X50650000Y-40625000D02*
G75*
G03*
X50150000Y-41125000I0J-500000D01*
G01*
X50650000Y-40625000D02*
X63650000Y-40625000D01*
X64150000Y-41125000D02*
G75*
G03*
X63650000Y-40625000I-500000J0D01*
G01*
X64150000Y-41125000D02*
X64150000Y-54125000D01*
X63650000Y-54625000D02*
G75*
G03*
X64150000Y-54125000I0J500000D01*
G01*
X69700000Y-54625000D02*
X82700000Y-54625000D01*
X69200000Y-54125000D02*
G75*
G03*
X69700000Y-54625000I500000J0D01*
G01*
X69200000Y-41125000D02*
X69200000Y-54125000D01*
X69700000Y-40625000D02*
G75*
G03*
X69200000Y-41125000I0J-500000D01*
G01*
X69700000Y-40625000D02*
X82700000Y-40625000D01*
X83200000Y-41125000D02*
G75*
G03*
X82700000Y-40625000I-500000J0D01*
G01*
X83200000Y-41125000D02*
X83200000Y-54125000D01*
X82700000Y-54625000D02*
G75*
G03*
X83200000Y-54125000I0J500000D01*
G01*
X88750000Y-54625000D02*
X101750000Y-54625000D01*
X88250000Y-54125000D02*
G75*
G03*
X88750000Y-54625000I500000J0D01*
G01*
X88250000Y-41125000D02*
X88250000Y-54125000D01*
X88750000Y-40625000D02*
G75*
G03*
X88250000Y-41125000I0J-500000D01*
G01*
X88750000Y-40625000D02*
X101750000Y-40625000D01*
X102250000Y-41125000D02*
G75*
G03*
X101750000Y-40625000I-500000J0D01*
G01*
X102250000Y-41125000D02*
X102250000Y-54125000D01*
X101750000Y-54625000D02*
G75*
G03*
X102250000Y-54125000I0J500000D01*
G01*
X107800000Y-54625000D02*
X120800000Y-54625000D01*
X107300000Y-54125000D02*
G75*
G03*
X107800000Y-54625000I500000J0D01*
G01*
X107300000Y-41125000D02*
X107300000Y-54125000D01*
X107800000Y-40625000D02*
G75*
G03*
X107300000Y-41125000I0J-500000D01*
G01*
X107800000Y-40625000D02*
X120800000Y-40625000D01*
X121300000Y-41125000D02*
G75*
G03*
X120800000Y-40625000I-500000J0D01*
G01*
X121300000Y-41125000D02*
X121300000Y-54125000D01*
X120800000Y-54625000D02*
G75*
G03*
X121300000Y-54125000I0J500000D01*
G01*
X126850000Y-54625000D02*
X139850000Y-54625000D01*
X126350000Y-54125000D02*
G75*
G03*
X126850000Y-54625000I500000J0D01*
G01*
X126350000Y-41125000D02*
X126350000Y-54125000D01*
X126850000Y-40625000D02*
G75*
G03*
X126350000Y-41125000I0J-500000D01*
G01*
X126850000Y-40625000D02*
X139850000Y-40625000D01*
X140350000Y-41125000D02*
G75*
G03*
X139850000Y-40625000I-500000J0D01*
G01*
X140350000Y-41125000D02*
X140350000Y-54125000D01*
X139850000Y-54625000D02*
G75*
G03*
X140350000Y-54125000I0J500000D01*
G01*
X145900000Y-54625000D02*
X158900000Y-54625000D01*
X145400000Y-54125000D02*
G75*
G03*
X145900000Y-54625000I500000J0D01*
G01*
X145400000Y-41125000D02*
X145400000Y-54125000D01*
X145900000Y-40625000D02*
G75*
G03*
X145400000Y-41125000I0J-500000D01*
G01*
X145900000Y-40625000D02*
X158900000Y-40625000D01*
X159400000Y-41125000D02*
G75*
G03*
X158900000Y-40625000I-500000J0D01*
G01*
X159400000Y-41125000D02*
X159400000Y-54125000D01*
X158900000Y-54625000D02*
G75*
G03*
X159400000Y-54125000I0J500000D01*
G01*
X164950000Y-54625000D02*
X177950000Y-54625000D01*
X164450000Y-54125000D02*
G75*
G03*
X164950000Y-54625000I500000J0D01*
G01*
X164450000Y-41125000D02*
X164450000Y-54125000D01*
X164950000Y-40625000D02*
G75*
G03*
X164450000Y-41125000I0J-500000D01*
G01*
X164950000Y-40625000D02*
X177950000Y-40625000D01*
X178450000Y-41125000D02*
G75*
G03*
X177950000Y-40625000I-500000J0D01*
G01*
X178450000Y-41125000D02*
X178450000Y-54125000D01*
X177950000Y-54625000D02*
G75*
G03*
X178450000Y-54125000I0J500000D01*
G01*
X184000000Y-54625000D02*
X197000000Y-54625000D01*
X183500000Y-54125000D02*
G75*
G03*
X184000000Y-54625000I500000J0D01*
G01*
X183500000Y-41125000D02*
X183500000Y-54125000D01*
X184000000Y-40625000D02*
G75*
G03*
X183500000Y-41125000I0J-500000D01*
G01*
X184000000Y-40625000D02*
X197000000Y-40625000D01*
X197500000Y-41125000D02*
G75*
G03*
X197000000Y-40625000I-500000J0D01*
G01*
X197500000Y-41125000D02*
X197500000Y-54125000D01*
X197000000Y-54625000D02*
G75*
G03*
X197500000Y-54125000I0J500000D01*
G01*
X203050000Y-54625000D02*
X216050000Y-54625000D01*
X202550000Y-54125000D02*
G75*
G03*
X203050000Y-54625000I500000J0D01*
G01*
X202550000Y-41125000D02*
X202550000Y-54125000D01*
X203050000Y-40625000D02*
G75*
G03*
X202550000Y-41125000I0J-500000D01*
G01*
X203050000Y-40625000D02*
X216050000Y-40625000D01*
X216550000Y-41125000D02*
G75*
G03*
X216050000Y-40625000I-500000J0D01*
G01*
X216550000Y-41125000D02*
X216550000Y-54125000D01*
X216050000Y-54625000D02*
G75*
G03*
X216550000Y-54125000I0J500000D01*
G01*
X5675999Y-59675000D02*
G75*
G03*
X5050000Y-54450000I-625999J2575000D01*
G01*
X5675999Y-59675000D02*
X18406250Y-59675000D01*
X18906200Y-60175000D02*
G75*
G03*
X18406250Y-59675000I-500000J0D01*
G01*
X18906250Y-60175000D02*
X18906250Y-73175000D01*
X18406250Y-73675050D02*
G75*
G03*
X18906250Y-73175000I-50J500050D01*
G01*
X3025000Y-73675000D02*
X18406250Y-73675000D01*
X2525000Y-73175000D02*
G75*
G03*
X3025000Y-73675000I500000J0D01*
G01*
X2525000Y-60175000D02*
X2525000Y-73175000D01*
X2761609Y-59750000D02*
G75*
G03*
X2525000Y-60175000I263391J-425000D01*
G01*
X2550000Y-59750000D02*
X2761609Y-59750000D01*
X2550000Y-59750000D02*
G75*
G03*
X0Y-62300000I0J-2550000D01*
G01*
X0Y-62300000D02*
X0Y-73700000D01*
X0Y-73700000D02*
G75*
G03*
X2500000Y-76200000I2500000J0D01*
G01*
X2500000Y-76200000D02*
X238125000Y-76200000D01*
X238125000Y-62072599D02*
X238125000Y-76200000D01*
X238125000Y-62072599D02*
G75*
G03*
X235650000Y-59750000I-2475000J-157401D01*
G01*
X235650000Y-59750000D02*
X235363391Y-59750000D01*
X235600000Y-60175000D02*
G75*
G03*
X235363391Y-59750000I-500000J0D01*
G01*
X235600000Y-60175000D02*
X235600000Y-73175000D01*
X235100000Y-73675000D02*
G75*
G03*
X235600000Y-73175000I0J500000D01*
G01*
X222100000Y-73675000D02*
X235100000Y-73675000D01*
X221600000Y-73175000D02*
G75*
G03*
X222100000Y-73675000I500000J0D01*
G01*
X221600000Y-60175000D02*
X221600000Y-73175000D01*
X222100000Y-59675000D02*
G75*
G03*
X221600000Y-60175000I0J-500000D01*
G01*
X222100000Y-59675000D02*
X232524001Y-59675000D01*
X232202965Y-54625000D02*
G75*
G03*
X232524001Y-59675000I947035J-2475000D01*
G01*
X222100000Y-54625000D02*
X232202965Y-54625000D01*
X221600000Y-54125000D02*
G75*
G03*
X222100000Y-54625000I500000J0D01*
G01*
X221600000Y-41125000D02*
X221600000Y-54125000D01*
X222100000Y-40625000D02*
G75*
G03*
X221600000Y-41125000I0J-500000D01*
G01*
X222100000Y-40625000D02*
X235100000Y-40625000D01*
X235600000Y-41125000D02*
G75*
G03*
X235100000Y-40625000I-500000J0D01*
G01*
X235600000Y-41125000D02*
X235600000Y-54125000D01*
X235479967Y-54450000D02*
G75*
G03*
X235600000Y-54125000I-379967J325000D01*
G01*
X235650000Y-54450000D02*
X235479967Y-54450000D01*
X235650000Y-54450000D02*
G75*
G03*
X238125000Y-52127401I0J2480000D01*
G01*
X238125000Y-23972599D02*
X238125000Y-52127401D01*
X238125000Y-23972599D02*
G75*
G03*
X235650000Y-21650000I-2475000J-157401D01*
G01*
X235650000Y-21650000D02*
X233150000Y-21650000D01*
X232972260Y-21644032D02*
G75*
G03*
X233150000Y-21650000I177740J2643932D01*
G01*
X233218775Y-22075000D02*
G75*
G03*
X232972260Y-21644033I-499975J0D01*
G01*
X233218750Y-22075000D02*
X233218750Y-35075000D01*
X232718750Y-35575050D02*
G75*
G03*
X233218750Y-35075000I-50J500050D01*
G01*
X219718750Y-35575000D02*
X232718750Y-35575000D01*
X219218800Y-35075000D02*
G75*
G03*
X219718750Y-35575000I500000J0D01*
G01*
X219218750Y-22075000D02*
X219218750Y-35075000D01*
X219718750Y-21574950D02*
G75*
G03*
X219218750Y-22075000I50J-500050D01*
G01*
X219718750Y-21575000D02*
X232524001Y-21575000D01*
X233150000Y-16350000D02*
G75*
G03*
X232524001Y-21575000I0J-2650000D01*
G01*
X235650000Y-16350000D02*
X233150000Y-16350000D01*
X235650000Y-16350000D02*
G75*
G03*
X238125000Y-14027401I0J2480000D01*
G01*
X238125000Y0D02*
X238125000Y-14027401D01*
X2500000Y0D02*
X238125000Y0D01*
X2500000Y0D02*
G75*
G03*
X0Y-2500000I0J-2500000D01*
G01*
X0Y-2500000D02*
X0Y-13800000D01*
X0Y-13800000D02*
G75*
G03*
X2550000Y-16350000I2550000J0D01*
G01*
X2550000Y-16350000D02*
X2645033Y-16350000D01*
X2525000Y-16025000D02*
G75*
G03*
X2645033Y-16350000I500000J0D01*
G01*
X2525000Y-3025000D02*
X2525000Y-16025000D01*
X3025000Y-2525000D02*
G75*
G03*
X2525000Y-3025000I0J-500000D01*
G01*
X3025000Y-2525000D02*
X16025000Y-2525000D01*
X16525000Y-3025000D02*
G75*
G03*
X16025000Y-2525000I-500000J0D01*
G01*
X16525000Y-3025000D02*
X16525000Y-16025000D01*
X16025000Y-16525000D02*
G75*
G03*
X16525000Y-16025000I0J500000D01*
G01*
X5997035Y-16525000D02*
X16025000Y-16525000D01*
X5675999Y-21575000D02*
G75*
G03*
X5997035Y-16525000I-625999J2575000D01*
G01*
X5675999Y-21575000D02*
X18406250Y-21575000D01*
X18906200Y-22075000D02*
G75*
G03*
X18406250Y-21575000I-500000J0D01*
G01*
X18906250Y-22075000D02*
X18906250Y-35075000D01*
X18406250Y-35575050D02*
G75*
G03*
X18906250Y-35075000I-50J500050D01*
G01*
X5406250Y-35575000D02*
X18406250Y-35575000D01*
X4906250Y-35075000D02*
G75*
G03*
X5406250Y-35575000I500000J0D01*
G01*
X4906250Y-22075000D02*
X4906250Y-35075000D01*
X5145679Y-21648293D02*
G75*
G03*
X4906250Y-22075000I260521J-426707D01*
G01*
X5050000Y-21649999D02*
G75*
G03*
X5145667Y-21648273I0J2651899D01*
G01*
X2550000Y-21650000D02*
X5050000Y-21650000D01*
X2550000Y-21650000D02*
G75*
G03*
X0Y-24200000I0J-2550000D01*
G01*
X0Y-24200000D02*
X0Y-51900000D01*
X0Y-51900000D02*
G75*
G03*
X2550000Y-54450000I2550000J0D01*
G01*
X2550000Y-54450000D02*
X5050000Y-54450000D01*
X22075000Y-73675000D02*
X75556250Y-73675000D01*
X21575000Y-73175000D02*
G75*
G03*
X22075000Y-73675000I500000J0D01*
G01*
X21575000Y-60175000D02*
X21575000Y-73175000D01*
X22075000Y-59675000D02*
G75*
G03*
X21575000Y-60175000I0J-500000D01*
G01*
X22075000Y-59675000D02*
X53650000Y-59675000D01*
X53650000Y-59675000D02*
X53650000Y-58175000D01*
X54150000Y-57675000D02*
G75*
G03*
X53650000Y-58175000I0J-500000D01*
G01*
X60150000Y-57675000D02*
X54150000Y-57675000D01*
X60650000Y-58175000D02*
G75*
G03*
X60150000Y-57675000I-500000J0D01*
G01*
X60650000Y-59675000D02*
X60650000Y-58175000D01*
X60650000Y-59675000D02*
X75556250Y-59675000D01*
X76056200Y-60175000D02*
G75*
G03*
X75556250Y-59675000I-500000J0D01*
G01*
X76056250Y-60175000D02*
X76056250Y-73175000D01*
X75556250Y-73675050D02*
G75*
G03*
X76056250Y-73175000I-50J500050D01*
G01*
X81606250Y-73675000D02*
X156518750Y-73675000D01*
X81106300Y-73175000D02*
G75*
G03*
X81606250Y-73675000I500000J0D01*
G01*
X81106250Y-60175000D02*
X81106250Y-73175000D01*
X81606250Y-59674950D02*
G75*
G03*
X81106250Y-60175000I50J-500050D01*
G01*
X81606250Y-59675000D02*
X82193250Y-59675000D01*
X82193250Y-59675000D02*
X82193250Y-58175000D01*
X82693250Y-57674950D02*
G75*
G03*
X82193250Y-58175000I50J-500050D01*
G01*
X91074500Y-57675000D02*
X82693250Y-57675000D01*
X91574500Y-58175000D02*
G75*
G03*
X91074500Y-57675000I-500000J0D01*
G01*
X91574500Y-59675000D02*
X91574500Y-58175000D01*
X91574500Y-59675000D02*
X103624500Y-59675000D01*
X103624500Y-59675000D02*
X103624500Y-58175000D01*
X104124500Y-57675000D02*
G75*
G03*
X103624500Y-58175000I0J-500000D01*
G01*
X114950500Y-57675000D02*
X104124500Y-57675000D01*
X115450500Y-58175000D02*
G75*
G03*
X114950500Y-57675000I-500000J0D01*
G01*
X115450500Y-59675000D02*
X115450500Y-58175000D01*
X115450500Y-59675000D02*
X122674500Y-59675000D01*
X122674500Y-59675000D02*
X122674500Y-58175000D01*
X123174500Y-57675000D02*
G75*
G03*
X122674500Y-58175000I0J-500000D01*
G01*
X134000500Y-57675000D02*
X123174500Y-57675000D01*
X134500500Y-58175000D02*
G75*
G03*
X134000500Y-57675000I-500000J0D01*
G01*
X134500500Y-59675000D02*
X134500500Y-58175000D01*
X134500500Y-59675000D02*
X146550500Y-59675000D01*
X146550500Y-59675000D02*
X146550500Y-58175000D01*
X147050500Y-57675000D02*
G75*
G03*
X146550500Y-58175000I0J-500000D01*
G01*
X155431750Y-57675000D02*
X147050500Y-57675000D01*
X155931700Y-58175000D02*
G75*
G03*
X155431750Y-57675000I-500000J0D01*
G01*
X155931750Y-59675000D02*
X155931750Y-58175000D01*
X155931750Y-59675000D02*
X156518750Y-59675000D01*
X157018700Y-60175000D02*
G75*
G03*
X156518750Y-59675000I-500000J0D01*
G01*
X157018750Y-60175000D02*
X157018750Y-73175000D01*
X156518750Y-73675050D02*
G75*
G03*
X157018750Y-73175000I-50J500050D01*
G01*
X162568750Y-73675000D02*
X177950000Y-73675000D01*
X162068800Y-73175000D02*
G75*
G03*
X162568750Y-73675000I500000J0D01*
G01*
X162068750Y-60175000D02*
X162068750Y-73175000D01*
X162568750Y-59674950D02*
G75*
G03*
X162068750Y-60175000I50J-500050D01*
G01*
X162568750Y-59675000D02*
X167950000Y-59675000D01*
X167950000Y-59675000D02*
X167950000Y-58175000D01*
X168450000Y-57675000D02*
G75*
G03*
X167950000Y-58175000I0J-500000D01*
G01*
X174450000Y-57675000D02*
X168450000Y-57675000D01*
X174950000Y-58175000D02*
G75*
G03*
X174450000Y-57675000I-500000J0D01*
G01*
X174950000Y-59675000D02*
X174950000Y-58175000D01*
X174950000Y-59675000D02*
X177950000Y-59675000D01*
X178450000Y-60175000D02*
G75*
G03*
X177950000Y-59675000I-500000J0D01*
G01*
X178450000Y-60175000D02*
X178450000Y-73175000D01*
X177950000Y-73675000D02*
G75*
G03*
X178450000Y-73175000I0J500000D01*
G01*
X184000000Y-73675000D02*
X197000000Y-73675000D01*
X183500000Y-73175000D02*
G75*
G03*
X184000000Y-73675000I500000J0D01*
G01*
X183500000Y-60175000D02*
X183500000Y-73175000D01*
X184000000Y-59675000D02*
G75*
G03*
X183500000Y-60175000I0J-500000D01*
G01*
X184000000Y-59675000D02*
X197000000Y-59675000D01*
X197500000Y-60175000D02*
G75*
G03*
X197000000Y-59675000I-500000J0D01*
G01*
X197500000Y-60175000D02*
X197500000Y-73175000D01*
X197000000Y-73675000D02*
G75*
G03*
X197500000Y-73175000I0J500000D01*
G01*
X203050000Y-73675000D02*
X216050000Y-73675000D01*
X202550000Y-73175000D02*
G75*
G03*
X203050000Y-73675000I500000J0D01*
G01*
X202550000Y-60175000D02*
X202550000Y-73175000D01*
X203050000Y-59675000D02*
G75*
G03*
X202550000Y-60175000I0J-500000D01*
G01*
X203050000Y-59675000D02*
X216050000Y-59675000D01*
X216550000Y-60175000D02*
G75*
G03*
X216050000Y-59675000I-500000J0D01*
G01*
X216550000Y-60175000D02*
X216550000Y-73175000D01*
X216050000Y-73675000D02*
G75*
G03*
X216550000Y-73175000I0J500000D01*
G01*
M02*
